SplineFontDB: 3.2
FontName: Rocohn-Bold
FullName: Rocohn Bold
FamilyName: Rocohn
Weight: Bold
Copyright: Copyright (c) 2019, Ronen.Cohen
UComments: "2019-9-27: Created with FontForge (http://fontforge.org)"
Version: 001.000
ItalicAngle: 0
UnderlinePosition: -100
UnderlineWidth: 50
Ascent: 800
Descent: 200
InvalidEm: 0
LayerCount: 2
Layer: 0 0 "Back" 1
Layer: 1 0 "Fore" 0
XUID: [1021 1023 -1521988005 18956]
StyleMap: 0x0000
FSType: 0
OS2Version: 0
OS2_WeightWidthSlopeOnly: 0
OS2_UseTypoMetrics: 1
CreationTime: 1569588779
ModificationTime: 1579867614
OS2TypoAscent: 0
OS2TypoAOffset: 1
OS2TypoDescent: 0
OS2TypoDOffset: 1
OS2TypoLinegap: 90
OS2WinAscent: 0
OS2WinAOffset: 1
OS2WinDescent: 0
OS2WinDOffset: 1
HheadAscent: 0
HheadAOffset: 1
HheadDescent: 0
HheadDOffset: 1
Lookup: 258 0 0 "'kern' Horizontal Kerning lookup 0" { "'kern' Horizontal Kerning lookup 0-1" [150,0,2] } ['kern' ('DFLT' <'dflt' > 'hebr' <'dflt' > 'latn' <'dflt' > ) ]
MarkAttachClasses: 1
DEI: 91125
KernClass2: 34 23 "'kern' Horizontal Kerning lookup 0-1"
 1 A
 1 B
 1 C
 3 D O
 1 E
 1 F
 1 G
 15 H I M N d i j l
 3 J U
 3 K X
 1 L
 1 P
 1 Q
 1 R
 1 S
 1 T
 1 V
 1 W
 1 Y
 1 Z
 5 a g u
 7 b e o p
 1 c
 1 f
 5 h m n
 1 k
 1 q
 1 r
 1 s
 1 t
 5 v w y
 1 x
 1 z
 1 A
 33 B D E F H I K L M N P R b h i k l
 7 C G O Q
 1 J
 1 S
 1 T
 1 U
 1 V
 1 W
 1 X
 1 Y
 1 Z
 13 a c d e g o q
 1 f
 1 j
 7 m n p r
 1 s
 1 t
 1 u
 5 v w y
 1 x
 1 z

StartChar: underscoredbl
Encoding: 223 8215 0
Width: 152
VWidth: 0
Flags: W
HStem: 47 20<36 116>
VStem: 36 80<47 67>
LayerCount: 2
Fore
SplineSet
36 57 m 1
 36 67 l 1
 46 67 l 1
 106 67 l 1
 116 67 l 1
 116 57 l 1
 116 47 l 1
 106 47 l 1
 46 47 l 1
 36 47 l 1
 36 57 l 1
EndSplineSet
Validated: 1
EndChar

StartChar: uni05D0
Encoding: 224 1488 1
Width: 714
VWidth: 0
Flags: W
HStem: 0 21G<63.4902 195.39 504.041 678.63> 580 20G<36 210.6 525.21 658.399>
LayerCount: 2
Fore
SplineSet
510.3203125 208.580078125 m 1
 678.629882812 0 l 1
 520.1796875 0 l 1
 250.139648438 334.639648438 l 1
 191.91015625 0 l 1
 63.490234375 0 l 1
 148.209960938 460.950195312 l 1
 36 600 l 1
 194.459960938 600 l 1
 429.299804688 309 l 1
 470.9296875 384.299804688 502.33984375 477.669921875 525.209960938 594.01953125 c 2
 526.399414062 600.0703125 l 1
 658.399414062 600.0703125 l 1
 656.620117188 591.0703125 l 2
 640.049804688 507.5703125 618.229492188 431.540039062 591.780273438 365.0703125 c 0
 568.6796875 307.030273438 541.3203125 254.41015625 510.3203125 208.580078125 c 1
EndSplineSet
Validated: 1
EndChar

StartChar: uni05D1
Encoding: 225 1489 2
Width: 645
VWidth: 0
Flags: W
HStem: 0 126.17<36 398.351 524.521 609.601> 474.6 130.4<68.3524 324.869>
VStem: 398.351 126.17<126.17 398.778>
LayerCount: 2
Fore
SplineSet
524.520507812 126.169921875 m 1
 609.600585938 126.169921875 l 1
 609.600585938 0 l 1
 36 0 l 1
 36 126.169921875 l 1
 398.350585938 126.169921875 l 1
 398.350585938 319.5703125 l 2
 398.350585938 407.379882812 326.91015625 478.830078125 239.090820312 478.830078125 c 0
 186.66015625 478.830078125 131.040039062 477.509765625 73.7705078125 474.919921875 c 2
 66.5107421875 474.599609375 l 1
 57.4501953125 593.790039062 l 1
 64.80078125 594.469726562 l 2
 140.840820312 601.459960938 199.470703125 605 239.090820312 605 c 0
 239.221679688 605 239.435546875 605 239.567382812 605 c 0
 271.240234375 605 320.606445312 594.956054688 349.760742188 582.580078125 c 0
 378.086914062 570.581054688 418.748046875 543.203125 440.520507812 521.469726562 c 0
 494.680664062 467.469726562 524.520507812 396.120117188 524.520507812 320.469726562 c 2
 524.520507812 126.169921875 l 1
EndSplineSet
Validated: 1
EndChar

StartChar: uni05D2
Encoding: 226 1490 3
Width: 491
VWidth: 0
Flags: W
HStem: 0.0703125 126.09<36 167.589> 473.85 126.15<134.75 237.69>
LayerCount: 2
Fore
SplineSet
342.170898438 600 m 1
 455.950195312 0 l 1
 327.55078125 0 l 1
 306.690429688 112.5703125 l 1
 274.16015625 74.6904296875 232.310546875 36.2998046875 179.05078125 19.169921875 c 0
 129.98046875 3.3798828125 82.66015625 0.0703125 51.6103515625 0.0703125 c 2
 43.4599609375 0.0703125 l 1
 36 0.0703125 l 1
 36 126.16015625 l 1
 46.1806640625 126.16015625 l 2
 136.30078125 125.23046875 247.420898438 163.309570312 280.30078125 249.16015625 c 1
 237.690429688 473.849609375 l 1
 134.75 473.849609375 l 1
 134.75 600 l 1
 342.170898438 600 l 1
EndSplineSet
Validated: 33
EndChar

StartChar: uni05D3
Encoding: 227 1491 4
Width: 617
VWidth: 0
Flags: W
HStem: 0 21G<372.2 498.35> 473.85 126.15<36 372.2 498.35 581.68>
VStem: 372.2 126.149<0 473.85>
LayerCount: 2
Fore
SplineSet
36 600 m 1
 581.6796875 600 l 1
 581.6796875 473.849609375 l 1
 498.349609375 473.849609375 l 1
 498.349609375 0 l 1
 372.200195312 0 l 1
 372.200195312 473.849609375 l 1
 36 473.849609375 l 1
 36 600 l 1
EndSplineSet
Validated: 1
EndChar

StartChar: uni05D4
Encoding: 228 1492 5
Width: 620
VWidth: 0
Flags: W
HStem: 0 21G<39.4102 165.561 458.05 584.221> 474.6 130.4<47.1499 384.569>
VStem: 39.4102 126.15<0 307.21> 458.05 126.171<0 398.778>
LayerCount: 2
Fore
SplineSet
39.41015625 0 m 1
 39.41015625 307.209960938 l 1
 165.560546875 318.3203125 l 1
 165.560546875 0 l 1
 39.41015625 0 l 1
500.190429688 521.440429688 m 0
 554.379882812 467.490234375 584.220703125 396.120117188 584.220703125 320.469726562 c 2
 584.220703125 0 l 1
 458.049804688 0 l 1
 458.049804688 319.5703125 l 2
 458.049804688 407.379882812 386.610351562 478.830078125 298.790039062 478.830078125 c 0
 297.190429688 478.830078125 137.640625 478.780273438 52.3203125 474.919921875 c 2
 45.0498046875 474.599609375 l 1
 36 593.790039062 l 1
 43.3505859375 594.469726562 l 2
 123.459960938 601.830078125 264.83984375 605 298.790039062 605 c 0
 298.891601562 605 299.055664062 605 299.157226562 605 c 0
 330.8515625 605 380.249023438 594.942382812 409.419921875 582.549804688 c 0
 437.75 570.55078125 478.4140625 543.173828125 500.190429688 521.440429688 c 0
EndSplineSet
Validated: 1
EndChar

StartChar: uni05D5
Encoding: 229 1493 6
Width: 198
VWidth: 0
Flags: W
HStem: 0 21G<36 162.15> 580 20G<36 162.15>
VStem: 36 126.15<0 600>
LayerCount: 2
Fore
SplineSet
36 0 m 1
 36 600 l 1
 162.150390625 600 l 1
 162.150390625 0 l 1
 36 0 l 1
EndSplineSet
Validated: 1
EndChar

StartChar: uni05D6
Encoding: 230 1494 7
Width: 394
VWidth: 0
Flags: W
HStem: 0.389648 21G<134.45 260.55> 463 126.17<262.649 358.76>
VStem: 134.45 126.1<0.389648 467>
LayerCount: 2
Fore
SplineSet
351.259765625 589.169921875 m 2
 358.759765625 589.169921875 l 1
 358.759765625 463 l 1
 351.259765625 463 l 2
 320.209960938 463 289.740234375 464.33984375 260.549804688 467 c 1
 260.549804688 0.3896484375 l 1
 134.450195312 0.3896484375 l 1
 134.450195312 488.169921875 l 1
 108.723632812 494.598632812 67.7900390625 507.626953125 43.080078125 517.25 c 2
 36 520 l 1
 81.6103515625 632.849609375 l 1
 88.259765625 630.690429688 l 2
 175.180664062 602.360351562 258.75 589.169921875 351.259765625 589.169921875 c 2
EndSplineSet
Validated: 1
EndChar

StartChar: uni05D7
Encoding: 231 1495 8
Width: 645
VWidth: 0
Flags: W
HStem: 0 21G<36 162.17 483.61 609.78> 478.84 126.16<164.005 403.562>
VStem: 36 126.17<0 476.84> 483.61 126.17<0 398.787>
LayerCount: 2
Fore
SplineSet
525.740234375 521.440429688 m 0
 579.939453125 467.490234375 609.780273438 396.120117188 609.780273438 320.469726562 c 2
 609.780273438 0 l 1
 483.610351562 0 l 1
 483.610351562 319.580078125 l 2
 483.610351562 407.389648438 412.169921875 478.83984375 324.349609375 478.83984375 c 0
 306.919921875 478.83984375 244.860351562 478.6796875 162.169921875 476.83984375 c 1
 162.169921875 0 l 1
 36 0 l 1
 36 591.76953125 l 1
 43 592.23046875 l 2
 176.139648438 601 282.169921875 605 324.349609375 605 c 0
 324.451171875 605 324.615234375 605 324.716796875 605 c 0
 356.411132812 605 405.80859375 594.942382812 434.979492188 582.549804688 c 0
 463.306640625 570.55078125 503.966796875 543.173828125 525.740234375 521.440429688 c 0
EndSplineSet
Validated: 1
EndChar

StartChar: uni05D8
Encoding: 232 1496 9
Width: 642
VWidth: 0
Flags: W
HStem: -5.62988 126.149<241.677 401.045> 479.54 126.09<312.296 438.307>
VStem: 36 126.15<200.554 599.23> 480.601 126.1<200.554 437.146>
LayerCount: 2
Fore
SplineSet
541.370117188 540.209960938 m 0
 583.509765625 498 606.75 442.16015625 606.700195312 382.91015625 c 2
 606.700195312 278.83984375 l 2
 606.700195312 203.209960938 576.889648438 131.860351562 522.700195312 77.919921875 c 0
 500.935546875 56.1865234375 460.283203125 28.8134765625 431.959960938 16.8203125 c 0
 402.689453125 4.427734375 353.135742188 -5.6298828125 321.350585938 -5.6298828125 c 0
 289.564453125 -5.6298828125 240.010742188 4.427734375 210.740234375 16.8203125 c 0
 182.416992188 28.8134765625 141.764648438 56.1865234375 120 77.919921875 c 0
 65.830078125 131.83984375 36 203.209960938 36 278.83984375 c 2
 36 599.23046875 l 1
 162.150390625 599.23046875 l 1
 162.150390625 279.75 l 2
 162.150390625 191.950195312 233.5703125 120.51953125 321.370117188 120.51953125 c 0
 409.169921875 120.51953125 480.600585938 191.950195312 480.600585938 279.75 c 2
 480.600585938 375.209960938 l 2
 480.500976562 432.750976562 433.720703125 479.490234375 376.1796875 479.540039062 c 2
 375.379882812 479.540039062 l 2
 353.212890625 479.536132812 321.90234375 467.440429688 305.490234375 452.540039062 c 2
 299.370117188 447 l 1
 228.58984375 542.169921875 l 1
 233.58984375 546.740234375 l 2
 268.762695312 579.237304688 336.172851562 605.620117188 384.060546875 605.629882812 c 1
 443.3203125 605.629882812 499.1796875 582.389648438 541.370117188 540.209960938 c 0
EndSplineSet
Validated: 37
EndChar

StartChar: uni05D9
Encoding: 233 1497 10
Width: 198
VWidth: 0
Flags: W
HStem: 281.68 318.32<36 115.48>
VStem: 36 126.15<292.79 600>
LayerCount: 2
Fore
SplineSet
36 600 m 1
 162.150390625 600 l 1
 162.150390625 292.790039062 l 1
 36 281.6796875 l 1
 36 600 l 1
EndSplineSet
Validated: 1
EndChar

StartChar: uni05DA
Encoding: 234 1498 11
Width: 557
VWidth: 0
Flags: W
HStem: 472.12 130.38<47.0372 321.541>
VStem: 395.01 126.15<-145.61 396.318>
LayerCount: 2
Fore
SplineSet
437.139648438 519 m 0
 491.319335938 465 521.16015625 393.66015625 521.16015625 318 c 2
 521.16015625 -145.610351562 l 1
 395.009765625 -145.610351562 l 1
 395.009765625 317.129882812 l 2
 395.009765625 404.919921875 323.580078125 476.349609375 235.779296875 476.349609375 c 0
 206.559570312 476.349609375 130.189453125 475.969726562 52.3095703125 472.450195312 c 2
 45.0498046875 472.120117188 l 1
 36 591.299804688 l 1
 43.349609375 591.969726562 l 2
 122.059570312 599.209960938 198.26953125 602.5 235.779296875 602.5 c 0
 235.862304688 602.5 235.995117188 602.5 236.078125 602.5 c 0
 267.80078125 602.5 317.239257812 592.419921875 346.4296875 580 c 0
 374.736328125 568.028320312 415.375 540.700195312 437.139648438 519 c 0
EndSplineSet
Validated: 1
EndChar

StartChar: uni05DB
Encoding: 235 1499 12
Width: 557
VWidth: 0
Flags: W
HStem: -2.5 130.4<47.0386 321.603> 472.1 130.4<47.0386 321.603>
VStem: 395.091 126.13<203.722 396.278>
LayerCount: 2
Fore
SplineSet
437.220703125 518.940429688 m 0
 491.41015625 465 521.260742188 393.620117188 521.220703125 318 c 2
 521.220703125 282.059570312 l 2
 521.220703125 206.379882812 491.41015625 135.059570312 437.220703125 81.0595703125 c 0
 415.447265625 59.326171875 374.787109375 31.94921875 346.4609375 19.9501953125 c 0
 317.2890625 7.5576171875 267.891601562 -2.5 236.197265625 -2.5 c 0
 236.09375 -2.5 235.924804688 -2.5 235.8203125 -2.5 c 0
 198.350585938 -2.5 122.0703125 0.7998046875 43.3505859375 8.0302734375 c 2
 36 8.7099609375 l 1
 45.05078125 127.900390625 l 1
 52.3203125 127.580078125 l 2
 130.220703125 124.049804688 206.600585938 123.669921875 235.8203125 123.669921875 c 0
 323.640625 123.669921875 395.090820312 195.120117188 395.090820312 282.9296875 c 2
 395.090820312 317.0703125 l 2
 395.090820312 404.879882812 323.640625 476.330078125 235.8203125 476.330078125 c 0
 206.600585938 476.330078125 130.220703125 475.950195312 52.3203125 472.419921875 c 2
 45.05078125 472.099609375 l 1
 36 591.290039062 l 1
 43.3505859375 591.969726562 l 2
 122.0703125 599.200195312 198.310546875 602.5 235.8203125 602.5 c 0
 235.892578125 602.5 236.008789062 602.5 236.080078125 602.5 c 0
 267.810546875 602.5 317.26171875 592.419921875 346.4609375 580 c 0
 374.783203125 568.012695312 415.444335938 540.658203125 437.220703125 518.940429688 c 0
EndSplineSet
Validated: 33
EndChar

StartChar: uni05DC
Encoding: 236 1500 13
Width: 579
VWidth: 0
Flags: W
HStem: 0 21G<235.12 376.52> 473.85 126.15<162.149 406.649>
VStem: 36 126.149<600 743.23>
LayerCount: 2
Fore
SplineSet
162.149414062 600 m 1
 543.109375 600 l 1
 543.109375 480.219726562 l 1
 542.669921875 478.98046875 l 1
 369.280273438 0 l 1
 235.120117188 0 l 1
 406.649414062 473.849609375 l 1
 36 473.849609375 l 1
 36 743.23046875 l 1
 162.149414062 743.23046875 l 1
 162.149414062 600 l 1
EndSplineSet
Validated: 1
EndChar

StartChar: uni05DD
Encoding: 237 1501 14
Width: 645
VWidth: 0
Flags: W
HStem: 0 126.17<162.17 483.61> 478.83 126.17<164.005 403.562>
VStem: 36 126.17<126.17 476.84> 483.61 126.17<126.17 398.778>
LayerCount: 2
Fore
SplineSet
525.740234375 521.440429688 m 0
 579.939453125 467.490234375 609.780273438 396.120117188 609.780273438 320.469726562 c 2
 609.780273438 0 l 1
 36 0 l 1
 36 591.76953125 l 1
 43 592.23046875 l 2
 176.139648438 601 282.169921875 605 324.349609375 605 c 0
 324.451171875 605 324.615234375 605 324.716796875 605 c 0
 356.411132812 605 405.80859375 594.942382812 434.979492188 582.549804688 c 0
 463.306640625 570.55078125 503.966796875 543.173828125 525.740234375 521.440429688 c 0
324.349609375 478.830078125 m 0
 306.919921875 478.830078125 244.860351562 478.6796875 162.169921875 476.83984375 c 1
 162.169921875 126.169921875 l 1
 483.610351562 126.169921875 l 1
 483.610351562 319.5703125 l 2
 483.610351562 407.379882812 412.169921875 478.830078125 324.349609375 478.830078125 c 0
EndSplineSet
Validated: 1
EndChar

StartChar: uni05DE
Encoding: 238 1502 15
Width: 643
VWidth: 0
Flags: W
HStem: 0 21G<36 162.15> 580 20G<36 162.15 328.78 351.002>
VStem: 36 126.15<0 414.524 525.48 600> 480.881 126.18<161.844 412.046>
LayerCount: 2
Fore
SplineSet
559.040039062 493.469726562 m 0
 590.880859375 447.809570312 607.030273438 392.509765625 607.060546875 329.120117188 c 2
 607.060546875 217.83984375 l 2
 607.060546875 158.580078125 583.8203125 102.709960938 541.640625 60.5302734375 c 0
 499.4609375 18.349609375 443.590820312 -4.8896484375 384.340820312 -4.8896484375 c 0
 384.294921875 -4.8896484375 384.220703125 -4.8896484375 384.174804688 -4.8896484375 c 0
 362.44140625 -4.8896484375 328.251953125 1.2119140625 307.860351562 8.73046875 c 2
 302.48046875 10.73046875 l 1
 313.020507812 130.650390625 l 1
 321.700195312 128.240234375 l 2
 366.040039062 115.940429688 412.740234375 122.870117188 443.580078125 146.3203125 c 0
 467.98046875 164.870117188 480.880859375 192.259765625 480.880859375 225.540039062 c 2
 480.880859375 329.120117188 l 2
 480.880859375 427.080078125 413.390625 472 350.23046875 481.280273438 c 0
 276.850585938 492.120117188 188.890625 457.809570312 162.150390625 371.33984375 c 1
 162.150390625 0 l 1
 36 0 l 1
 36 600 l 1
 162.150390625 600 l 1
 162.150390625 525.48046875 l 1
 184.98046875 557.48046875 237.580078125 591.959960938 285.580078125 600.48046875 c 0
 299.325195312 602.876953125 321.803710938 604.821289062 335.755859375 604.821289062 c 0
 366.248046875 604.821289062 414.034179688 595.78515625 442.420898438 584.650390625 c 0
 490.400390625 565.610351562 530.73046875 534.080078125 559.040039062 493.469726562 c 0
EndSplineSet
Validated: 33
EndChar

StartChar: uni05DF
Encoding: 239 1503 16
Width: 198
VWidth: 0
Flags: W
HStem: 580 20G<36 162.15>
VStem: 36 126.15<-148.88 600>
LayerCount: 2
Fore
SplineSet
36 -148.879882812 m 1
 36 600 l 1
 162.150390625 600 l 1
 162.150390625 -148.879882812 l 1
 36 -148.879882812 l 1
EndSplineSet
Validated: 1
EndChar

StartChar: uni05E0
Encoding: 240 1504 17
Width: 376
VWidth: 0
Flags: W
HStem: 473.83 126.17<110.69 214.5>
VStem: 214.5 126.17<161.751 473.83>
LayerCount: 2
Fore
SplineSet
110.690429688 600 m 1
 340.669921875 600 l 1
 340.669921875 217.76953125 l 2
 340.669921875 158.5 317.440429688 102.620117188 275.240234375 60.4296875 c 0
 233.040039062 18.240234375 177.169921875 -5 117.900390625 -5 c 0
 117.827148438 -5 117.708984375 -5 117.635742188 -5 c 0
 95.9189453125 -5 61.755859375 1.09765625 41.3798828125 8.6103515625 c 2
 36 10.6103515625 l 1
 46.599609375 130.549804688 l 1
 55.2802734375 128.139648438 l 2
 99.6298828125 115.83984375 146.33984375 122.76953125 177.190429688 146.219726562 c 0
 201.599609375 164.780273438 214.5 192.1796875 214.5 225.459960938 c 2
 214.5 473.830078125 l 1
 110.690429688 473.830078125 l 1
 110.690429688 600 l 1
EndSplineSet
Validated: 33
EndChar

StartChar: uni05E1
Encoding: 241 1505 18
Width: 642
VWidth: 0
Flags: W
HStem: -4.87988 126.149<241.665 401.034> 478.73 126.14<241.665 401.034>
VStem: 36 126.119<201.304 398.696> 480.58 126.119<201.304 398.696>
LayerCount: 2
Fore
SplineSet
522.69921875 521.330078125 m 0
 576.889648438 467.389648438 606.729492188 396 606.69921875 320.41015625 c 2
 606.69921875 279.58984375 l 2
 606.69921875 203.959960938 576.889648438 132.610351562 522.69921875 78.669921875 c 0
 500.934570312 56.9365234375 460.283203125 29.5634765625 431.959960938 17.5703125 c 0
 402.688476562 5.177734375 353.135742188 -4.8798828125 321.349609375 -4.8798828125 c 0
 289.563476562 -4.8798828125 240.010742188 5.177734375 210.739257812 17.5703125 c 0
 182.416015625 29.5634765625 141.764648438 56.9365234375 120 78.669921875 c 0
 65.830078125 132.58984375 36 203.959960938 36 279.58984375 c 2
 36 320.41015625 l 2
 36 396.040039062 65.8095703125 467.389648438 120 521.330078125 c 0
 141.764648438 543.063476562 182.416015625 570.436523438 210.739257812 582.4296875 c 0
 240.01171875 594.81640625 289.564453125 604.870117188 321.349609375 604.870117188 c 0
 353.134765625 604.870117188 402.6875 594.81640625 431.959960938 582.4296875 c 0
 460.283203125 570.436523438 500.934570312 543.063476562 522.69921875 521.330078125 c 0
162.119140625 319.5 m 2
 162.119140625 280.5 l 2
 162.119140625 192.700195312 233.549804688 121.26953125 321.349609375 121.26953125 c 0
 409.149414062 121.26953125 480.580078125 192.700195312 480.580078125 280.5 c 2
 480.580078125 319.5 l 2
 480.580078125 407.299804688 409.149414062 478.73046875 321.349609375 478.73046875 c 0
 233.549804688 478.73046875 162.119140625 407.299804688 162.119140625 319.5 c 2
EndSplineSet
Validated: 33
EndChar

StartChar: uni05E2
Encoding: 242 1506 19
Width: 650
VWidth: 0
Flags: W
HStem: 580 20G<36 179.628 469.055 483.73>
VStem: 482.82 0.910156<599.98 600>
LayerCount: 2
Fore
SplineSet
483.73046875 600 m 1
 483.73046875 599.98046875 l 1
 614.120117188 599.98046875 l 1
 597.58984375 485.370117188 571.919921875 375.23046875 537.8203125 289.509765625 c 0
 507.700195312 213.790039062 471.450195312 150.139648438 427.009765625 94.900390625 c 0
 345.919921875 -5.8896484375 254.080078125 -55.91015625 180.290039062 -96.099609375 c 0
 175.15625 -98.88671875 170.103515625 -101.646484375 165.129882812 -104.379882812 c 2
 158.41015625 -108.059570312 l 1
 105.790039062 -6.8701171875 l 1
 112.219726562 -3.33984375 l 2
 146.3671875 15.2890625 198.088867188 50.91015625 227.669921875 76.169921875 c 1
 36 600 l 1
 172.450195312 600 l 1
 328.879882812 164.120117188 l 1
 404.900390625 259.110351562 455.290039062 406.23046875 482.8203125 600 c 1
 483.73046875 600 l 1
EndSplineSet
Validated: 1
EndChar

StartChar: uni05E3
Encoding: 243 1507 20
Width: 635
VWidth: 0
Flags: W
HStem: 476.38 126.12<191.733 393.275>
VStem: 36 126.11<344.982 448.218> 473.31 126.19<-146.35 396.346>
LayerCount: 2
Fore
SplineSet
515.48046875 519 m 0
 569.66015625 465 599.5 393.66015625 599.5 318 c 2
 599.5 -146.349609375 l 1
 473.309570312 -146.349609375 l 1
 473.309570312 317.150390625 l 2
 473.309570312 404.950195312 401.879882812 476.379882812 314.080078125 476.379882812 c 2
 243.5 476.379882812 l 2
 198.622070312 476.330078125 162.159179688 439.868164062 162.110351562 394.990234375 c 0
 162.110351562 325.450195312 263.48046875 299.450195312 264.48046875 299.190429688 c 2
 272.419921875 297.190429688 l 1
 239.25 200.709960938 l 1
 233.25 201.459960938 l 2
 180.690429688 207.959960938 132.6796875 227.950195312 98.0595703125 257.73046875 c 0
 57.4599609375 292.650390625 36 340.110351562 36 394.959960938 c 0
 36 509.400390625 129.099609375 602.5 243.540039062 602.5 c 2
 314.120117188 602.5 l 2
 314.197265625 602.5 314.321289062 602.5 314.3984375 602.5 c 0
 346.12109375 602.5 395.559570312 592.419921875 424.75 580 c 0
 453.063476562 568.030273438 493.709960938 540.702148438 515.48046875 519 c 0
EndSplineSet
Validated: 1
EndChar

StartChar: uni05E4
Encoding: 244 1508 21
Width: 639
VWidth: 0
Flags: W
HStem: -2.48047 130.4<109.966 403.544> 476.35 126.15<191.764 396.977>
VStem: 36 126.13<344.951 448.184> 477.029 126.131<203.743 396.298>
LayerCount: 2
Fore
SplineSet
519.200195312 518.940429688 m 0
 573.389648438 465 603.240234375 393.620117188 603.16015625 318 c 2
 603.16015625 282.080078125 l 2
 603.16015625 206.400390625 573.349609375 135.080078125 519.16015625 81.080078125 c 0
 497.38671875 59.3466796875 456.7265625 31.9697265625 428.399414062 19.9697265625 c 0
 399.228515625 7.5771484375 349.831054688 -2.48046875 318.13671875 -2.48046875 c 0
 318.03515625 -2.48046875 317.87109375 -2.48046875 317.76953125 -2.48046875 c 0
 278.689453125 -2.48046875 184.459960938 0.8701171875 106.290039062 8.0498046875 c 2
 98.939453125 8.73046875 l 1
 108 127.919921875 l 1
 115.259765625 127.599609375 l 2
 197.41015625 123.879882812 298.359375 123.690429688 317.76953125 123.690429688 c 0
 405.580078125 123.690429688 477.029296875 195.139648438 477.029296875 282.950195312 c 2
 477.029296875 317.08984375 l 2
 477.029296875 404.900390625 405.580078125 476.349609375 317.76953125 476.349609375 c 2
 243.540039062 476.349609375 l 2
 198.651367188 476.30078125 162.1796875 439.829101562 162.129882812 394.940429688 c 0
 162.129882812 325.509765625 263.51953125 299.370117188 264.51953125 299.120117188 c 2
 272.459960938 297.120117188 l 1
 239.290039062 200.629882812 l 1
 233.290039062 201.370117188 l 2
 180.719726562 207.879882812 132.700195312 227.870117188 98.0693359375 257.66015625 c 0
 57.4599609375 292.58984375 36 340.049804688 36 394.919921875 c 0
 36 509.379882812 129.120117188 602.5 243.580078125 602.5 c 2
 317.809570312 602.5 l 2
 317.87890625 602.5 317.990234375 602.5 318.059570312 602.5 c 0
 349.790039062 602.5 399.240234375 592.419921875 428.439453125 580 c 0
 456.762695312 568.012695312 497.423828125 540.658203125 519.200195312 518.940429688 c 0
EndSplineSet
Validated: 33
EndChar

StartChar: uni05E5
Encoding: 245 1509 22
Width: 678
VWidth: 0
Flags: W
HStem: 580 20G<36 187.986 513.01 642.22>
LayerCount: 2
Fore
SplineSet
514.190429688 600 m 1
 642.219726562 600 l 1
 640.740234375 591.25 l 2
 633.7421875 550.169921875 617.224609375 484.793945312 603.870117188 445.3203125 c 0
 580.879882812 377.209960938 550.91015625 313.969726562 514.790039062 257.209960938 c 0
 491.353515625 220.228515625 447.337890625 164.958984375 416.540039062 133.83984375 c 1
 558.48046875 -143.23046875 l 1
 416.740234375 -143.23046875 l 1
 36 600 l 1
 177.740234375 600 l 1
 355.330078125 253.330078125 l 1
 458.009765625 372.790039062 498.150390625 517.349609375 513.009765625 593.9296875 c 2
 514.190429688 600 l 1
EndSplineSet
Validated: 1
EndChar

StartChar: uni05E6
Encoding: 246 1510 23
Width: 672
VWidth: 0
Flags: W
HStem: 0 126.15<61.0605 422.061> 580 20G<36 218.748 487.021 636.62>
LayerCount: 2
Fore
SplineSet
636.620117188 600 m 1
 614.620117188 527.83984375 589.620117188 424 479.719726562 251.309570312 c 1
 583.060546875 121.080078125 l 1
 583.060546875 0 l 1
 61.060546875 0 l 1
 61.060546875 126.150390625 l 1
 422.060546875 126.150390625 l 1
 36 600 l 1
 202.870117188 600 l 1
 399.020507812 352.9296875 l 1
 438.23046875 418.379882812 472.020507812 503.639648438 502.020507812 600 c 1
 636.620117188 600 l 1
EndSplineSet
Validated: 1
EndChar

StartChar: uni05E7
Encoding: 247 1511 24
Width: 644
VWidth: 0
Flags: W
HStem: 0 21G<300.23 441.63> 473.85 126.15<36 471.761>
VStem: 51.6006 126.149<-143.23 314.33>
LayerCount: 2
Fore
SplineSet
36 600 m 1
 608.220703125 600 l 1
 608.220703125 480.219726562 l 1
 607.770507812 478.98046875 l 1
 434.390625 0 l 1
 300.23046875 0 l 1
 471.760742188 473.849609375 l 1
 36 473.849609375 l 1
 36 600 l 1
51.6005859375 -143.23046875 m 1
 51.6005859375 314.330078125 l 1
 177.75 314.330078125 l 1
 177.75 -143.23046875 l 1
 51.6005859375 -143.23046875 l 1
EndSplineSet
Validated: 1
EndChar

StartChar: uni05E8
Encoding: 248 1512 25
Width: 557
VWidth: 0
Flags: W
HStem: 0 21G<395.091 521.261> 474.6 130.4<47.0386 321.603>
VStem: 395.091 126.17<0 398.778>
LayerCount: 2
Fore
SplineSet
437.220703125 521.440429688 m 0
 491.41015625 467.490234375 521.260742188 396.120117188 521.260742188 320.469726562 c 2
 521.260742188 0 l 1
 395.090820312 0 l 1
 395.090820312 319.5703125 l 2
 395.090820312 407.379882812 323.640625 478.830078125 235.8203125 478.830078125 c 0
 206.600585938 478.830078125 130.220703125 478.450195312 52.3203125 474.919921875 c 2
 45.05078125 474.599609375 l 1
 36 593.790039062 l 1
 43.3505859375 594.469726562 l 2
 122.0703125 601.700195312 198.310546875 605 235.8203125 605 c 0
 235.9296875 605 236.107421875 605 236.217773438 605 c 0
 267.911132812 605 317.309570312 594.942382812 346.48046875 582.549804688 c 0
 374.80078125 570.548828125 415.453125 543.171875 437.220703125 521.440429688 c 0
EndSplineSet
Validated: 1
EndChar

StartChar: uni05E9
Encoding: 249 1513 26
Width: 708
VWidth: 0
Flags: W
HStem: 0 126.15<162.15 466.636> 580 20G<36 162.15 312.41 438.55 546.67 672.76>
VStem: 36 126.15<126.15 600> 312.41 126.14<399.251 600> 546.67 126.09<206.182 600>
LayerCount: 2
Fore
SplineSet
546.669921875 600 m 1
 672.759765625 600 l 1
 672.759765625 284.469726562 l 2
 672.759765625 208.83984375 642.950195312 137.48046875 588.759765625 83.5400390625 c 0
 566.99609375 61.806640625 526.344726562 34.4384765625 498.020507812 22.4501953125 c 0
 468.85546875 10.0576171875 419.466796875 0 387.77734375 0 c 0
 387.67578125 0 387.51171875 0 387.41015625 0 c 2
 36 0 l 1
 36 600 l 1
 162.150390625 600 l 1
 162.150390625 126.150390625 l 1
 387.440429688 126.150390625 l 2
 475.240234375 126.150390625 546.669921875 197.580078125 546.669921875 285.370117188 c 2
 546.669921875 600 l 1
312.41015625 600 m 1
 438.549804688 600 l 1
 438.549804688 592.5 l 2
 438.549804688 422.75 398.5 307.75 358.41015625 224.75 c 1
 248.08984375 266.5 l 1
 281.530273438 350.5 312.41015625 454.5 312.41015625 592.5 c 2
 312.41015625 600 l 1
EndSplineSet
Validated: 1
EndChar

StartChar: uni05EA
Encoding: 250 1514 27
Width: 755
VWidth: 0
Flags: W
HStem: -5.09961 116.439<62.5486 167.967> 469 116.45<130.781 187.069> 478.72 126.15<321.002 513.653>
VStem: 190.54 126.12<134.547 473.46> 593.68 126.18<0 398.688>
LayerCount: 2
Fore
SplineSet
635.83984375 521.330078125 m 0xb8
 690.01953125 467.389648438 719.859375 396 719.859375 320.400390625 c 2
 719.859375 0 l 1
 593.6796875 0 l 1
 593.6796875 319.5 l 2
 593.6796875 407.290039062 522.259765625 478.719726562 434.459960938 478.719726562 c 0xb8
 424.759765625 478.719726562 375.059570312 478.669921875 316.66015625 477.599609375 c 1
 316.66015625 186.099609375 l 2
 316.66015625 145.540039062 309.120117188 110.650390625 294.26953125 82.400390625 c 0
 283.452148438 61.63671875 258.364257812 35.0341796875 238.26953125 23.01953125 c 0
 200.189453125 0.0498046875 156.1796875 -5.099609375 124.389648438 -5.099609375 c 0
 122.75 -5.099609375 121.129882812 -5.099609375 119.549804688 -5.099609375 c 0
 84.2392578125 -4.5302734375 52.8095703125 2.3203125 41.16015625 8.4697265625 c 2
 36 11.1904296875 l 1
 62.4296875 121.080078125 l 1
 70.0400390625 118.860351562 l 2
 78.349609375 116.389648438 102.66015625 110.209960938 115.139648438 111.33984375 c 2
 115.819335938 111.33984375 l 2
 157.015625 111.389648438 190.490234375 144.864257812 190.540039062 186.059570312 c 2
 190.540039062 473.459960938 l 1
 169.91015625 472.360351562 152.309570312 471.08984375 138.149414062 469.690429688 c 2
 131.229492188 469 l 1
 110.899414062 584.120117188 l 1
 118.259765625 585.450195312 l 2xd8
 193.879882812 599.030273438 384.330078125 604.870117188 434.489257812 604.870117188 c 0
 434.58984375 604.870117188 434.750976562 604.870117188 434.850585938 604.870117188 c 0
 466.541015625 604.870117188 515.932617188 594.8125 545.099609375 582.419921875 c 0
 573.420898438 570.427734375 614.073242188 543.05859375 635.83984375 521.330078125 c 0xb8
EndSplineSet
Validated: 33
EndChar

StartChar: a
Encoding: 97 97 29
Width: 643
VWidth: 0
Flags: W
HStem: -4.7998 133.439<245.921 397.278> 471.36 133.439<245.921 397.278>
VStem: 36 133.439<205.122 394.878> 473.76 133.439<205.122 394.878>
LayerCount: 2
Fore
SplineSet
500.359375 600 m 1
 607.19921875 600 l 1
 607.19921875 0 l 1
 500.33984375 0 l 1
 480.33984375 55.7197265625 l 1
 431.989257812 16.5703125 372.619140625 -4.7998046875 311.33984375 -4.7998046875 c 0
 311.256835938 -4.7998046875 311.122070312 -4.7998046875 311.040039062 -4.7998046875 c 0
 280.311523438 -4.7998046875 232.563476562 5.2841796875 204.459960938 17.7099609375 c 0
 176.959960938 29.83984375 137.737304688 57.2705078125 116.909179688 78.9404296875 c 0
 64.7294921875 132.879882812 36 204.259765625 36 279.879882812 c 2
 36 320.059570312 l 2
 36 395.6796875 64.7294921875 467 116.909179688 521 c 0
 137.740234375 542.680664062 176.971679688 570.125 204.479492188 582.259765625 c 0
 232.599609375 594.702148438 280.377929688 604.799804688 311.126953125 604.799804688 c 0
 311.19140625 604.799804688 311.295898438 604.799804688 311.359375 604.799804688 c 0
 372.609375 604.799804688 431.979492188 583.4296875 480.359375 544.280273438 c 1
 500.359375 600 l 1
321.599609375 128.639648438 m 0
 405.5 128.639648438 473.759765625 196.900390625 473.759765625 280.799804688 c 2
 473.759765625 319.200195312 l 2
 473.759765625 403.099609375 405.5 471.360351562 321.599609375 471.360351562 c 0
 237.69921875 471.360351562 169.439453125 403.099609375 169.439453125 319.200195312 c 2
 169.439453125 280.799804688 l 2
 169.439453125 196.900390625 237.69921875 128.639648438 321.599609375 128.639648438 c 0
EndSplineSet
Validated: 1
EndChar

StartChar: b
Encoding: 98 98 30
Width: 643
VWidth: 0
Flags: W
HStem: -4.7998 133.439<245.921 397.278> 471.36 133.439<245.921 397.278> 780 20G<36 169.439>
VStem: 36 133.439<205.122 394.878 549.46 800> 473.76 133.439<205.122 394.878>
LayerCount: 2
Fore
SplineSet
526.290039062 521 m 0
 578.469726562 467.0703125 607.19921875 395.709960938 607.19921875 320.08984375 c 2
 607.19921875 279.940429688 l 2
 607.19921875 204.3203125 578.469726562 133 526.290039062 79 c 0
 505.458984375 57.3193359375 466.227539062 29.875 438.719726562 17.740234375 c 0
 410.599609375 5.2978515625 362.821289062 -4.7998046875 332.072265625 -4.7998046875 c 0
 332.0078125 -4.7998046875 331.903320312 -4.7998046875 331.83984375 -4.7998046875 c 0
 270.58984375 -4.7998046875 211.219726562 16.5703125 162.83984375 55.7197265625 c 1
 142.83984375 0 l 1
 36 0 l 1
 36 800 l 1
 169.439453125 800 l 1
 169.439453125 549.459960938 l 1
 216.569335938 585.309570312 273.33984375 604.799804688 331.859375 604.799804688 c 0
 331.905273438 604.799804688 331.978515625 604.799804688 332.024414062 604.799804688 c 0
 362.794921875 604.799804688 410.603515625 594.688476562 438.739257812 582.23046875 c 0
 466.239257812 570.100585938 505.461914062 542.668945312 526.290039062 521 c 0
473.759765625 319.200195312 m 2
 473.759765625 403.099609375 405.5 471.360351562 321.599609375 471.360351562 c 0
 237.69921875 471.360351562 169.439453125 403.099609375 169.439453125 319.200195312 c 2
 169.439453125 280.799804688 l 2
 169.439453125 196.900390625 237.69921875 128.639648438 321.599609375 128.639648438 c 0
 405.5 128.639648438 473.759765625 196.900390625 473.759765625 280.799804688 c 2
 473.759765625 319.200195312 l 2
EndSplineSet
Validated: 1
EndChar

StartChar: c
Encoding: 99 99 31
Width: 590
VWidth: 0
Flags: W
HStem: -4.7998 133.439<245.917 398.88> 471.36 133.439<245.917 398.87>
VStem: 36 133.439<205.122 394.878>
LayerCount: 2
Fore
SplineSet
450.029296875 199.490234375 m 2
 458.059570312 212.099609375 l 1
 554.739257812 115.41015625 l 1
 548.329101562 107.059570312 l 2
 500.93359375 45.4150390625 399.358398438 -4.6982421875 321.599609375 -4.7998046875 c 0
 321.5 -4.7998046875 321.337890625 -4.7998046875 321.23828125 -4.7998046875 c 0
 289.51953125 -4.7998046875 240.083007812 5.2666015625 210.889648438 17.669921875 c 0
 182.547851562 29.671875 141.864257812 57.0576171875 120.079101562 78.7998046875 c 0
 65.859375 132.780273438 36 204.200195312 36 279.91015625 c 2
 36 320.08984375 l 2
 36 395.799804688 65.859375 467.200195312 120.079101562 521.200195312 c 0
 141.864257812 542.942382812 182.547851562 570.328125 210.889648438 582.330078125 c 0
 240.083007812 594.733398438 289.51953125 604.799804688 321.23828125 604.799804688 c 0
 321.337890625 604.799804688 321.5 604.799804688 321.599609375 604.799804688 c 0
 399.369140625 604.706054688 500.95703125 554.592773438 548.359375 492.940429688 c 2
 554.76953125 484.58984375 l 1
 458.029296875 387.900390625 l 1
 450.029296875 400.509765625 l 2
 421.759765625 444.879882812 373.75 471.360351562 321.599609375 471.360351562 c 0
 237.689453125 471.360351562 169.439453125 403.099609375 169.439453125 319.200195312 c 2
 169.439453125 280.799804688 l 2
 169.439453125 196.900390625 237.689453125 128.639648438 321.599609375 128.639648438 c 0
 373.76953125 128.639648438 421.76953125 155.120117188 450.029296875 199.490234375 c 2
EndSplineSet
Validated: 1
EndChar

StartChar: d
Encoding: 100 100 32
Width: 643
VWidth: 0
Flags: W
HStem: -4.7998 133.439<245.921 397.278> 471.36 133.439<245.921 397.278> 780 20G<473.76 607.199>
VStem: 36 133.439<205.122 394.878> 473.76 133.439<205.122 394.878 549.47 800>
LayerCount: 2
Fore
SplineSet
473.759765625 800 m 1
 607.19921875 800 l 1
 607.19921875 0 l 1
 500.33984375 0 l 1
 480.33984375 55.7197265625 l 1
 431.989257812 16.5703125 372.619140625 -4.7998046875 311.33984375 -4.7998046875 c 0
 311.256835938 -4.7998046875 311.122070312 -4.7998046875 311.040039062 -4.7998046875 c 0
 280.311523438 -4.7998046875 232.563476562 5.2841796875 204.459960938 17.7099609375 c 0
 176.959960938 29.83984375 137.737304688 57.2705078125 116.909179688 78.9404296875 c 0
 64.7294921875 132.879882812 36 204.259765625 36 279.879882812 c 2
 36 320.059570312 l 2
 36 395.6796875 64.7294921875 467 116.909179688 521 c 0
 137.737304688 542.67578125 176.959960938 570.120117188 204.459960938 582.259765625 c 0
 232.579101562 594.702148438 280.357421875 604.799804688 311.107421875 604.799804688 c 0
 311.171875 604.799804688 311.275390625 604.799804688 311.33984375 604.799804688 c 0
 369.859375 604.799804688 426.599609375 585.309570312 473.759765625 549.469726562 c 1
 473.759765625 800 l 1
321.599609375 128.639648438 m 0
 405.5 128.639648438 473.759765625 196.900390625 473.759765625 280.799804688 c 2
 473.759765625 319.200195312 l 2
 473.759765625 403.099609375 405.5 471.360351562 321.599609375 471.360351562 c 0
 237.69921875 471.360351562 169.439453125 403.099609375 169.439453125 319.200195312 c 2
 169.439453125 280.799804688 l 2
 169.439453125 196.900390625 237.69921875 128.639648438 321.599609375 128.639648438 c 0
EndSplineSet
Validated: 1
EndChar

StartChar: e
Encoding: 101 101 33
Width: 643
VWidth: 0
Flags: W
HStem: -4.7998 133.439<244.826 392.888> 243.16 110.399<174.199 469.81> 471.36 133.438<244.052 399.158>
LayerCount: 2
Fore
SplineSet
607.19921875 320.08984375 m 2
 607.19921875 243.16015625 l 1
 174.19921875 243.16015625 l 1
 191.26953125 176.969726562 252.290039062 128.639648438 321.599609375 128.639648438 c 0
 357.985351562 128.764648438 407.6953125 150.42578125 432.559570312 176.990234375 c 2
 436.109375 180.790039062 l 1
 571.599609375 142.790039062 l 1
 521.369140625 52.419921875 425.599609375 -4.7998046875 321.599609375 -4.7998046875 c 0
 321.501953125 -4.7998046875 321.342773438 -4.7998046875 321.244140625 -4.7998046875 c 0
 289.5234375 -4.7998046875 240.084960938 5.2666015625 210.889648438 17.669921875 c 0
 182.548828125 29.669921875 141.870117188 57.0556640625 120.08984375 78.7998046875 c 0
 65.859375 132.780273438 36 204.200195312 36 279.91015625 c 2
 36 320.08984375 l 2
 36 395.799804688 65.859375 467.200195312 120.08984375 521.200195312 c 0
 141.870117188 542.944335938 182.548828125 570.330078125 210.889648438 582.330078125 c 0
 240.1875 594.732421875 289.78515625 604.797851562 321.599609375 604.797851562 c 0
 353.4140625 604.797851562 403.01171875 594.732421875 432.309570312 582.330078125 c 0
 460.650390625 570.330078125 501.329101562 542.944335938 523.109375 521.200195312 c 0
 577.33984375 467.219726562 607.19921875 395.799804688 607.19921875 320.08984375 c 2
321.599609375 471.360351562 m 0
 250.649414062 471.360351562 189.219726562 421.599609375 173.389648438 353.559570312 c 1
 469.809570312 353.559570312 l 1
 453.979492188 421.599609375 392.599609375 471.360351562 321.599609375 471.360351562 c 0
EndSplineSet
Validated: 1
EndChar

StartChar: f
Encoding: 102 102 34
Width: 450
VWidth: 0
Flags: W
HStem: 0 21G<151.58 285.03> 472.8 133.44<36 151.58 285.03 398.32> 772.33 133.4<308.334 413.2>
VStem: 151.58 133.45<0 472.8 606.24 748.983>
LayerCount: 2
Fore
SplineSet
398.3203125 606.240234375 m 5
 414.73046875 472.799804688 l 5
 285.030273438 472.799804688 l 5
 285.030273438 0 l 5
 151.580078125 0 l 5
 151.580078125 472.799804688 l 5
 36 472.799804688 l 5
 36 606.240234375 l 5
 151.58984375 606.240234375 l 5
 151.58984375 703.330078125 l 6
 151.58984375 814.9296875 242.379882812 905.73046875 353.990234375 905.73046875 c 6
 413.200195312 905.73046875 l 5
 413.200195312 772.330078125 l 5
 354.030273438 772.330078125 l 6
 315.942382812 772.330078125 285.030273438 741.41796875 285.030273438 703.330078125 c 6
 285.030273438 606.240234375 l 5
 398.3203125 606.240234375 l 5
EndSplineSet
Validated: 1
EndChar

StartChar: g
Encoding: 103 103 35
Width: 643
VWidth: 0
Flags: W
HStem: -254.4 133.4<244.219 397.717> -4.7998 133.439<245.921 397.278> 471.36 133.439<245.921 397.278>
VStem: 36 133.439<205.122 394.878> 473.76 133.439<-44.4885 50.5303 205.122 394.878>
LayerCount: 2
Fore
SplineSet
500.359375 600 m 1
 607.19921875 600 l 1
 607.19921875 31.2001953125 l 2
 607.19921875 31.1201171875 607.200195312 30.9892578125 607.200195312 30.9091796875 c 0
 607.200195312 0.0517578125 597.970703125 -48.2734375 586.599609375 -76.9599609375 c 0
 575.506835938 -105.240234375 549.5234375 -146.06640625 528.599609375 -168.08984375 c 0
 475.69921875 -223.75 402.169921875 -254.400390625 321.599609375 -254.400390625 c 0
 243.85546875 -254.302734375 142.293945312 -204.20703125 94.8994140625 -142.580078125 c 2
 88.4794921875 -134.23046875 l 1
 185.169921875 -37.5498046875 l 1
 193.169921875 -50.150390625 l 2
 221.4296875 -94.51953125 269.439453125 -121 321.599609375 -121 c 0
 405.5 -121 473.759765625 -52.7001953125 473.759765625 31.2001953125 c 2
 473.759765625 50.5302734375 l 1
 426.629882812 14.6904296875 369.859375 -4.7998046875 311.33984375 -4.7998046875 c 0
 311.259765625 -4.7998046875 311.12890625 -4.7998046875 311.048828125 -4.7998046875 c 0
 280.319335938 -4.7998046875 232.567382812 5.2802734375 204.459960938 17.7001953125 c 0
 176.9609375 29.8349609375 137.739257812 57.2705078125 116.909179688 78.9404296875 c 0
 64.7294921875 132.879882812 36 204.259765625 36 279.879882812 c 2
 36 320.059570312 l 2
 36 395.6796875 64.7294921875 467 116.909179688 521 c 0
 137.7421875 542.677734375 176.973632812 570.122070312 204.479492188 582.259765625 c 0
 232.599609375 594.702148438 280.377929688 604.799804688 311.126953125 604.799804688 c 0
 311.19140625 604.799804688 311.295898438 604.799804688 311.359375 604.799804688 c 0
 372.609375 604.799804688 431.979492188 583.4296875 480.359375 544.280273438 c 1
 500.359375 600 l 1
473.759765625 319.200195312 m 2
 473.759765625 403.099609375 405.5 471.360351562 321.599609375 471.360351562 c 0
 237.69921875 471.360351562 169.439453125 403.099609375 169.439453125 319.200195312 c 2
 169.439453125 280.799804688 l 2
 169.439453125 196.900390625 237.69921875 128.639648438 321.599609375 128.639648438 c 0
 405.5 128.639648438 473.759765625 196.900390625 473.759765625 280.799804688 c 2
 473.759765625 319.200195312 l 2
EndSplineSet
Validated: 1
EndChar

StartChar: h
Encoding: 104 104 36
Width: 621
VWidth: 0
Flags: W
HStem: 0 21G<36 169.439 451.68 585.119> 471.36 134.938<236.772 384.727> 780 20G<36 169.449>
VStem: 36 133.439<0 403.359 544.71 800> 451.68 133.439<0 403.337>
LayerCount: 2
Fore
SplineSet
537.549804688 500 m 0
 569.109375 453.440429688 585.119140625 396.3203125 585.119140625 330.240234375 c 2
 585.119140625 0 l 1
 451.6796875 0 l 1
 451.6796875 330.240234375 l 2
 451.6796875 408 388.369140625 471.360351562 310.559570312 471.360351562 c 0
 232.75 471.360351562 169.439453125 408.049804688 169.439453125 330.240234375 c 2
 169.439453125 0 l 1
 36 0 l 1
 36 800 l 1
 169.44921875 800 l 1
 169.44921875 544.709960938 l 1
 194.908203125 567.455078125 242.580078125 592.094726562 275.859375 599.709960938 c 0
 291.596679688 603.346679688 317.477539062 606.298828125 333.62890625 606.298828125 c 0
 358.74609375 606.298828125 398.2734375 599.288085938 421.859375 590.650390625 c 0
 461.852539062 575.920898438 513.681640625 535.309570312 537.549804688 500 c 0
EndSplineSet
Validated: 1
EndChar

StartChar: i
Encoding: 105 105 37
Width: 211
VWidth: 0
Flags: W
HStem: 0 21G<38.8799 172.319> 580 20G<38.8799 172.319> 660.8 139.2<55.2184 155.981>
VStem: 38.8799 133.439<0 600 677.772 783.028>
LayerCount: 2
Fore
SplineSet
38.8798828125 0 m 1
 38.8798828125 600 l 1
 172.319335938 600 l 1
 172.319335938 0 l 1
 38.8798828125 0 l 1
36 730.400390625 m 0
 36 768.838867188 67.16015625 800 105.599609375 800 c 0
 144.0390625 800 175.19921875 768.838867188 175.19921875 730.400390625 c 0
 175.19921875 691.9609375 144.0390625 660.799804688 105.599609375 660.799804688 c 0
 67.16015625 660.799804688 36 691.9609375 36 730.400390625 c 0
EndSplineSet
Validated: 1
EndChar

StartChar: j
Encoding: 106 106 38
Width: 329
VWidth: 0
Flags: W
HStem: 580 20G<157.06 290.5> 660.8 139.2<173.438 274.154>
VStem: 157.06 133.44<-27.9014 600 677.811 783.021>
LayerCount: 2
Fore
SplineSet
223.779296875 660.799804688 m 0
 185.404296875 660.84375 154.223632812 692.024414062 154.1796875 730.400390625 c 0
 154.1796875 768.819335938 185.360351562 800 223.779296875 800 c 0
 262.19921875 800 293.379882812 768.819335938 293.379882812 730.400390625 c 0
 293.379882812 691.98046875 262.19921875 660.799804688 223.779296875 660.799804688 c 0
157.059570312 36.5595703125 m 2
 157.059570312 600 l 1
 290.5 600 l 1
 290.5 36.5595703125 l 2
 290.5 -22.2802734375 269.120117188 -78.2802734375 230.279296875 -121.280273438 c 0
 191.830078125 -163.849609375 138.44921875 -191.349609375 79.9599609375 -198.719726562 c 2
 69.7900390625 -200 l 1
 36 -83.3603515625 l 1
 48.6201171875 -80.6796875 l 2
 65.0458984375 -76.5322265625 89.9052734375 -65.6728515625 104.109375 -56.4404296875 c 0
 139.25 -33.2900390625 157.059570312 -1.990234375 157.059570312 36.5595703125 c 2
EndSplineSet
Validated: 1
EndChar

StartChar: k
Encoding: 107 107 39
Width: 599
VWidth: 0
Flags: W
HStem: 0 21G<36 169.44 394.528 561.32> 580 20G<386.748 563.761> 780 20G<36 169.44>
VStem: 36 133.44<0 149.67 331.83 800>
LayerCount: 2
Fore
SplineSet
563.760742188 600 m 1
 319.850585938 321.450195312 l 1
 561.3203125 0 l 1
 409.41015625 0 l 1
 238.959960938 229.0703125 l 1
 169.440429688 149.669921875 l 1
 169.440429688 0 l 1
 36 0 l 1
 36 800 l 1
 169.440429688 800 l 1
 169.440429688 331.830078125 l 1
 404.260742188 600 l 1
 563.760742188 600 l 1
EndSplineSet
Validated: 1
EndChar

StartChar: l
Encoding: 108 108 40
Width: 205
VWidth: 0
Flags: W
HStem: 0 21G<36 169.439> 780 20G<36 169.439>
VStem: 36 133.439<0 800>
LayerCount: 2
Fore
SplineSet
36 0 m 1
 36 800 l 1
 169.439453125 800 l 1
 169.439453125 0 l 1
 36 0 l 1
EndSplineSet
Validated: 1
EndChar

StartChar: m
Encoding: 109 109 41
Width: 1036
VWidth: 0
Flags: W
HStem: 0.129883 21G<36 169.4 451.681 585.12 867.4 1000.8> 471.49 135.001<652.015 800.232>
VStem: 36 133.4<0.129883 403.494> 451.681 133.439<0.129883 403.501> 867.4 133.4<0.129883 403.496>
CounterMasks: 1 38
LayerCount: 2
Fore
SplineSet
943.8203125 513.110351562 m 0
 981.090820312 465.190429688 1000.80078125 402 1000.80078125 330.379882812 c 2
 1000.80078125 0.1298828125 l 1
 867.400390625 0.1298828125 l 1
 867.400390625 330.379882812 l 2
 867.400390625 408.190429688 804.040039062 471.490234375 726.240234375 471.490234375 c 0
 648.440429688 471.490234375 585.120117188 408.200195312 585.120117188 330.400390625 c 2
 585.120117188 0.1298828125 l 1
 451.680664062 0.1298828125 l 1
 451.680664062 330.379882812 l 2
 451.669921875 408.200195312 388.330078125 471.490234375 310.520507812 471.490234375 c 0
 232.709960938 471.490234375 169.400390625 408.190429688 169.400390625 330.370117188 c 2
 169.400390625 0.1298828125 l 1
 36 0.1298828125 l 1
 36 600.129882812 l 1
 143.180664062 600.129882812 l 1
 162.700195312 538.530273438 l 1
 214.700195312 589.009765625 288.290039062 613.58984375 363.600585938 604.75 c 0
 395.977539062 600.999023438 444.361328125 583.428710938 471.600585938 565.530273438 c 0
 495.364257812 549.80859375 526.916992188 517.4453125 542.030273438 493.290039062 c 1
 564.14453125 529.190429688 613.7421875 571.338867188 652.740234375 587.370117188 c 0
 678.4296875 597.924804688 721.8203125 606.491210938 749.59375 606.491210938 c 0
 766.33984375 606.491210938 793.142578125 603.30078125 809.419921875 599.370117188 c 0
 863.66015625 586.240234375 910.130859375 556.41015625 943.8203125 513.110351562 c 0
EndSplineSet
Validated: 33
EndChar

StartChar: n
Encoding: 110 110 42
Width: 621
VWidth: 0
Flags: W
HStem: 0 21G<36 169.439 451.68 585.119> 471.36 134.938<237.022 384.727>
VStem: 36 133.439<0 403.359> 451.68 133.439<0 403.337>
LayerCount: 2
Fore
SplineSet
537.549804688 500 m 0
 569.109375 453.440429688 585.119140625 396.3203125 585.119140625 330.240234375 c 2
 585.119140625 0 l 1
 451.6796875 0 l 1
 451.6796875 330.240234375 l 2
 451.6796875 408 388.369140625 471.360351562 310.559570312 471.360351562 c 0
 232.75 471.360351562 169.439453125 408.049804688 169.439453125 330.240234375 c 2
 169.439453125 0 l 1
 36 0 l 1
 36 600 l 1
 143.189453125 600 l 1
 162.719726562 538.41015625 l 1
 193.689453125 568.509765625 232.409179688 589.549804688 275.859375 599.709960938 c 0
 291.596679688 603.346679688 317.477539062 606.298828125 333.62890625 606.298828125 c 0
 358.74609375 606.298828125 398.2734375 599.288085938 421.859375 590.650390625 c 0
 461.852539062 575.920898438 513.681640625 535.309570312 537.549804688 500 c 0
EndSplineSet
Validated: 1
EndChar

StartChar: o
Encoding: 111 111 43
Width: 643
VWidth: 0
Flags: W
HStem: -4.79785 133.438<244.531 398.668> 471.36 133.438<244.531 398.668>
VStem: 36 133.439<205.122 394.878> 473.76 133.439<205.122 394.878>
LayerCount: 2
Fore
SplineSet
523.109375 521.200195312 m 0
 577.33984375 467.219726562 607.19921875 395.799804688 607.19921875 320.08984375 c 2
 607.19921875 279.91015625 l 2
 607.19921875 204.200195312 577.33984375 132.799804688 523.109375 78.7998046875 c 0
 501.329101562 57.0556640625 460.650390625 29.669921875 432.309570312 17.669921875 c 0
 403.01171875 5.267578125 353.4140625 -4.7978515625 321.599609375 -4.7978515625 c 0
 289.78515625 -4.7978515625 240.1875 5.267578125 210.889648438 17.669921875 c 0
 182.548828125 29.669921875 141.870117188 57.0556640625 120.08984375 78.7998046875 c 0
 65.859375 132.780273438 36 204.200195312 36 279.91015625 c 2
 36 320.08984375 l 2
 36 395.799804688 65.859375 467.200195312 120.08984375 521.200195312 c 0
 141.870117188 542.944335938 182.548828125 570.330078125 210.889648438 582.330078125 c 0
 240.1875 594.732421875 289.78515625 604.797851562 321.599609375 604.797851562 c 0
 353.4140625 604.797851562 403.01171875 594.732421875 432.309570312 582.330078125 c 0
 460.650390625 570.330078125 501.329101562 542.944335938 523.109375 521.200195312 c 0
169.439453125 319.200195312 m 2
 169.439453125 280.799804688 l 2
 169.439453125 196.900390625 237.69921875 128.639648438 321.599609375 128.639648438 c 0
 405.5 128.639648438 473.759765625 196.900390625 473.759765625 280.799804688 c 2
 473.759765625 319.200195312 l 2
 473.759765625 403.099609375 405.5 471.360351562 321.599609375 471.360351562 c 0
 237.69921875 471.360351562 169.439453125 403.099609375 169.439453125 319.200195312 c 2
EndSplineSet
Validated: 1
EndChar

StartChar: p
Encoding: 112 112 44
Width: 643
VWidth: 0
Flags: W
HStem: -4.7998 133.439<245.921 397.278> 471.36 133.439<245.921 397.278>
VStem: 36 133.439<-200 50.54 205.122 394.878> 473.76 133.439<205.122 394.878>
LayerCount: 2
Fore
SplineSet
526.290039062 521 m 0
 578.469726562 467.0703125 607.19921875 395.709960938 607.19921875 320.08984375 c 2
 607.19921875 279.940429688 l 2
 607.19921875 204.3203125 578.469726562 133 526.290039062 79 c 0
 505.461914062 57.32421875 466.239257812 29.8798828125 438.739257812 17.740234375 c 0
 410.620117188 5.2978515625 362.841796875 -4.7998046875 332.091796875 -4.7998046875 c 0
 332.02734375 -4.7998046875 331.923828125 -4.7998046875 331.859375 -4.7998046875 c 0
 273.33984375 -4.7998046875 216.599609375 14.6904296875 169.439453125 50.5400390625 c 1
 169.439453125 -200 l 1
 36 -200 l 1
 36 600 l 1
 142.859375 600 l 1
 162.859375 544.280273438 l 1
 211.209960938 583.4296875 270.580078125 604.799804688 331.859375 604.799804688 c 0
 331.905273438 604.799804688 331.978515625 604.799804688 332.024414062 604.799804688 c 0
 362.794921875 604.799804688 410.603515625 594.688476562 438.739257812 582.23046875 c 0
 466.237304688 570.09765625 505.459960938 542.666015625 526.290039062 521 c 0
473.759765625 319.200195312 m 2
 473.759765625 403.099609375 405.5 471.360351562 321.599609375 471.360351562 c 0
 237.69921875 471.360351562 169.439453125 403.099609375 169.439453125 319.200195312 c 2
 169.439453125 280.799804688 l 2
 169.439453125 196.900390625 237.69921875 128.639648438 321.599609375 128.639648438 c 0
 405.5 128.639648438 473.759765625 196.900390625 473.759765625 280.799804688 c 2
 473.759765625 319.200195312 l 2
EndSplineSet
Validated: 1
EndChar

StartChar: q
Encoding: 113 113 45
Width: 643
VWidth: 0
Flags: W
HStem: -4.7998 133.439<245.921 397.278> 471.36 133.439<245.921 397.278>
VStem: 36 133.439<205.122 394.878> 473.76 133.439<-200 50.54 205.122 394.878>
LayerCount: 2
Fore
SplineSet
36 320.08984375 m 2
 36 395.709960938 64.7294921875 467.0703125 116.909179688 521 c 0
 137.7421875 542.677734375 176.973632812 570.122070312 204.479492188 582.259765625 c 0
 232.599609375 594.702148438 280.377929688 604.799804688 311.126953125 604.799804688 c 0
 311.19140625 604.799804688 311.295898438 604.799804688 311.359375 604.799804688 c 0
 372.609375 604.799804688 431.979492188 583.4296875 480.359375 544.280273438 c 1
 500.359375 600 l 1
 607.19921875 600 l 1
 607.19921875 -200 l 1
 473.759765625 -200 l 1
 473.759765625 50.5400390625 l 1
 426.629882812 14.6904296875 369.859375 -4.7998046875 311.33984375 -4.7998046875 c 0
 311.275390625 -4.7998046875 311.171875 -4.7998046875 311.107421875 -4.7998046875 c 0
 280.357421875 -4.7998046875 232.579101562 5.2978515625 204.459960938 17.740234375 c 0
 176.961914062 29.873046875 137.739257812 57.3037109375 116.909179688 78.9697265625 c 0
 64.7294921875 132.91015625 36 204.290039062 36 279.91015625 c 2
 36 320.08984375 l 2
321.599609375 471.360351562 m 0
 237.69921875 471.360351562 169.439453125 403.099609375 169.439453125 319.200195312 c 2
 169.439453125 280.799804688 l 2
 169.439453125 196.900390625 237.69921875 128.639648438 321.599609375 128.639648438 c 0
 405.5 128.639648438 473.759765625 196.900390625 473.759765625 280.799804688 c 2
 473.759765625 319.200195312 l 2
 473.759765625 403.099609375 405.5 471.360351562 321.599609375 471.360351562 c 0
EndSplineSet
Validated: 1
EndChar

StartChar: r
Encoding: 114 114 46
Width: 432
VWidth: 0
Flags: W
HStem: 0.139648 21G<36 169.44> 473.42 133.44<245.922 396>
VStem: 36 133.44<0.139648 396.938>
LayerCount: 2
Fore
SplineSet
331.860351562 606.860351562 m 2
 396 606.860351562 l 1
 396 473.419921875 l 1
 321.599609375 473.419921875 l 2
 237.700195312 473.419921875 169.440429688 405.16015625 169.440429688 321.259765625 c 2
 169.440429688 0.1396484375 l 1
 36 0.1396484375 l 1
 36 600 l 1
 142.860351562 600 l 1
 162.860351562 546.33984375 l 1
 211.209960938 585.490234375 270.580078125 606.860351562 331.860351562 606.860351562 c 2
EndSplineSet
Validated: 1
EndChar

StartChar: s
Encoding: 115 115 47
Width: 589
VWidth: 0
Flags: W
LayerCount: 2
Fore
SplineSet
533.40625 259.3203125 m 0
 548.56640625 234.26953125 555.276367188 204 553.326171875 169.440429688 c 2
 553.24609375 168.530273438 l 2
 552.986328125 166.58984375 546.516601562 120.629882812 508.885742188 76.240234375 c 0
 486.845703125 50.23046875 458.646484375 30.1396484375 425.0859375 16.51953125 c 0
 390.266601562 2.3798828125 349.595703125 -4.75 303.90625 -4.75 c 0
 295.353515625 -4.75 286.626953125 -4.5 277.7265625 -4 c 0
 186.826171875 1.1201171875 120.486328125 27.2998046875 80.5166015625 73.8203125 c 0
 37.056640625 124.370117188 41.8359375 179.959960938 42.056640625 182.299804688 c 2
 42.986328125 192.059570312 l 1
 162.576171875 204.700195312 l 1
 163.125976562 192.150390625 l 2
 163.3359375 189.389648438 169.826171875 122.26953125 284.456054688 115.790039062 c 0
 394.356445312 109.620117188 411.736328125 170.009765625 413.456054688 177.48046875 c 0
 414.516601562 212.990234375 353.456054688 224.299804688 282.845703125 237.379882812 c 0
 227.436523438 247.650390625 164.635742188 259.280273438 116.576171875 286 c 0
 89.49609375 301.080078125 69.826171875 319.209960938 56.326171875 341.450195312 c 0
 41.095703125 366.48046875 34.3857421875 396.669921875 36.326171875 431.190429688 c 2
 36.40625 432.08984375 l 2
 36.666015625 434.030273438 43.1357421875 479.990234375 80.7666015625 524.389648438 c 0
 102.806640625 550.389648438 131.005859375 570.48046875 164.56640625 584.110351562 c 0
 205.92578125 600.889648438 255.486328125 607.790039062 311.92578125 604.620117188 c 0
 402.81640625 599.509765625 469.135742188 573.330078125 509.135742188 526.809570312 c 0
 552.595703125 476.26953125 547.81640625 420.6796875 547.595703125 418.330078125 c 2
 546.666015625 408.5703125 l 1
 427.076171875 395.940429688 l 1
 426.526367188 408.490234375 l 2
 426.31640625 411.240234375 419.826171875 478.370117188 305.196289062 484.799804688 c 0
 195.295898438 490.98046875 177.916015625 430.58984375 176.196289062 423.120117188 c 0
 175.116210938 387.33984375 236.255859375 376.120117188 306.965820312 363.120117188 c 0
 362.356445312 352.950195312 425.15625 341.419921875 473.15625 314.740234375 c 0
 500.215820312 299.700195312 519.92578125 281.5703125 533.40625 259.3203125 c 0
EndSplineSet
Validated: 33
EndChar

StartChar: t
Encoding: 116 116 48
Width: 450
VWidth: 0
Flags: W
HStem: 0 133.44<308.285 413.12> 466.56 133.44<36 151.54 285 398.27> 780 20G<151.54 285>
VStem: 151.54 133.46<156.738 466.56 600 800>
LayerCount: 2
Fore
SplineSet
285 202.389648438 m 2
 285.02734375 164.362304688 315.913085938 133.47265625 353.940429688 133.440429688 c 2
 413.120117188 133.440429688 l 1
 413.120117188 0 l 1
 353.940429688 0 l 2
 242.330078125 0 151.540039062 90.7900390625 151.540039062 202.389648438 c 2
 151.540039062 466.559570312 l 1
 36 466.559570312 l 1
 36 600 l 1
 151.540039062 600 l 1
 151.540039062 800 l 1
 285 800 l 1
 285 600 l 1
 398.26953125 600 l 1
 414.700195312 466.559570312 l 1
 285 466.559570312 l 1
 285 202.389648438 l 2
EndSplineSet
Validated: 1
EndChar

StartChar: u
Encoding: 117 117 49
Width: 621
VWidth: 0
Flags: W
HStem: -6.42871 134.938<236.392 384.098> 579.87 20G<36 169.439 451.68 585.119>
VStem: 36 133.439<196.506 599.87> 451.68 133.439<196.506 599.87>
LayerCount: 2
Fore
SplineSet
451.6796875 599.870117188 m 1
 585.119140625 599.870117188 l 1
 585.119140625 -0.1298828125 l 1
 477.9296875 -0.1298828125 l 1
 458.399414062 61.4599609375 l 1
 427.439453125 31.349609375 388.709960938 10.3095703125 345.259765625 0.16015625 c 0
 329.522460938 -3.4765625 303.641601562 -6.4287109375 287.490234375 -6.4287109375 c 0
 262.373046875 -6.4287109375 222.845703125 0.58203125 199.259765625 9.2197265625 c 0
 159.270507812 23.9443359375 107.446289062 64.546875 83.5791015625 99.849609375 c 0
 52 146.4296875 36 203.549804688 36 269.629882812 c 2
 36 599.870117188 l 1
 169.439453125 599.870117188 l 1
 169.439453125 269.629882812 l 2
 169.439453125 191.809570312 232.75 128.509765625 310.559570312 128.509765625 c 0
 388.369140625 128.509765625 451.6796875 191.809570312 451.6796875 269.629882812 c 2
 451.6796875 599.870117188 l 1
EndSplineSet
Validated: 1
EndChar

StartChar: v
Encoding: 118 118 50
Width: 631
VWidth: 0
Flags: W
HStem: 0 21G<245.283 386.017> 580 20G<36 178.033 453.268 595.301>
LayerCount: 2
Fore
SplineSet
460.25 600 m 1
 595.30078125 600 l 1
 378.80078125 0 l 1
 252.5 0 l 1
 36 600 l 1
 171.05078125 600 l 1
 315.650390625 185.790039062 l 1
 460.25 600 l 1
EndSplineSet
Validated: 1
EndChar

StartChar: w
Encoding: 119 119 51
Width: 965
VWidth: 0
Flags: W
HStem: 0 21G<229.005 368.712 596.728 736.435> 580 20G<36 177.288 413.106 552.333 788.152 929.439>
LayerCount: 2
Fore
SplineSet
794.629882812 600 m 1
 929.439453125 600 l 1
 729.779296875 0 l 1
 602.779296875 0 l 1
 482.719726562 396.799804688 l 1
 362.66015625 0 l 1
 235.66015625 0 l 1
 36 600 l 1
 170.809570312 600 l 1
 300.26953125 200.309570312 l 1
 419.049804688 600 l 1
 546.389648438 600 l 1
 665.169921875 200.309570312 l 1
 794.629882812 600 l 1
EndSplineSet
Validated: 1
EndChar

StartChar: x
Encoding: 120 120 52
Width: 645
VWidth: 0
Flags: W
HStem: 0 21G<36 211.589 434.151 609.74> 580 20G<36 211.589 434.151 609.74>
LayerCount: 2
Fore
SplineSet
609.740234375 600 m 1
 403.799804688 300 l 1
 609.740234375 0 l 1
 447.879882812 0 l 1
 322.870117188 182.110351562 l 1
 197.860351562 0 l 1
 36 0 l 1
 241.940429688 300 l 1
 36 600 l 1
 197.860351562 600 l 1
 322.870117188 417.889648438 l 1
 447.879882812 600 l 1
 609.740234375 600 l 1
EndSplineSet
Validated: 1
EndChar

StartChar: y
Encoding: 121 121 53
Width: 631
VWidth: 0
Flags: W
HStem: -199.98 126.784<87.06 200.127> 580 20G<36 177.849 453.351 595.22>
LayerCount: 2
Fore
SplineSet
460.200195312 600 m 1
 595.219726562 600 l 1
 366.900390625 -43.6796875 l 2
 347.049804688 -99.01953125 307.98046875 -144.540039062 256.900390625 -171.879882812 c 0
 227.750976562 -187.391601562 177.295898438 -199.98046875 144.276367188 -199.98046875 c 0
 144.109375 -199.98046875 143.837890625 -199.98046875 143.669921875 -199.98046875 c 0
 128.467773438 -199.979492188 104.087890625 -197.291015625 89.25 -193.98046875 c 2
 79.25 -191.75 l 1
 86.8603515625 -70.580078125 l 1
 99.6396484375 -72.3203125 l 2
 104.592773438 -72.8037109375 112.650390625 -73.1962890625 117.625976562 -73.1962890625 c 0
 129.499023438 -73.1962890625 148.513671875 -70.9853515625 160.0703125 -68.259765625 c 0
 200.969726562 -58.330078125 228.33984375 -34.8896484375 241.33984375 1.400390625 c 2
 245.190429688 12.099609375 l 1
 36 600 l 1
 171 600 l 1
 315.600585938 177.75 l 1
 460.200195312 600 l 1
EndSplineSet
Validated: 1
EndChar

StartChar: z
Encoding: 122 122 54
Width: 576
VWidth: 0
Flags: W
HStem: 0 133.44<210.14 540> 466.56 133.44<36 365.86>
LayerCount: 2
Fore
SplineSet
540 600 m 1
 540 473.700195312 l 1
 210.139648438 133.440429688 l 1
 540 133.440429688 l 1
 540 0 l 1
 36 0 l 1
 36 126.299804688 l 1
 365.860351562 466.559570312 l 1
 36 466.559570312 l 1
 36 600 l 1
 540 600 l 1
EndSplineSet
Validated: 1
EndChar

StartChar: E
Encoding: 69 69 55
Width: 695
VWidth: 0
Flags: W
HStem: 0 133.44<169.44 659.5> 233.28 133.439<169.44 520.01> 666.56 133.44<169.44 659.5>
VStem: 36 133.44<133.44 233.28 366.72 666.56>
LayerCount: 2
Fore
SplineSet
659.5 666.559570312 m 1
 169.440429688 666.559570312 l 1
 169.440429688 366.719726562 l 1
 520.009765625 366.719726562 l 1
 520.009765625 233.280273438 l 1
 169.440429688 233.280273438 l 1
 169.440429688 133.440429688 l 1
 659.5 133.440429688 l 1
 659.5 0 l 1
 36 0 l 1
 36 800 l 1
 659.5 800 l 1
 659.5 666.559570312 l 1
EndSplineSet
Validated: 1
EndChar

StartChar: C
Encoding: 67 67 56
Width: 791
VWidth: 0
Flags: W
HStem: -5 133.44<320.045 511.022> 671.89 133.44<320.045 511.022>
VStem: 36 133.439<278.357 522.009>
LayerCount: 2
Fore
SplineSet
635.989257812 273.309570312 m 1
 755.239257812 208.41015625 l 1
 693.599609375 82.3896484375 563.489257812 -5 414.599609375 -5 c 0
 207.049804688 -5 36 164.809570312 36 372.389648438 c 2
 36 428 l 2
 36 635.51953125 207.049804688 805.330078125 414.599609375 805.330078125 c 0
 563.489257812 805.330078125 693.599609375 717.940429688 755.239257812 591.9296875 c 1
 635.989257812 527.01953125 l 1
 596.409179688 612.469726562 511.669921875 671.889648438 414.599609375 671.889648438 c 0
 280.19921875 671.889648438 169.439453125 558 169.439453125 418.809570312 c 2
 169.439453125 381.51953125 l 2
 169.439453125 242.330078125 280.19921875 128.440429688 414.599609375 128.440429688 c 0
 511.669921875 128.440429688 596.409179688 187.860351562 635.989257812 273.309570312 c 1
EndSplineSet
Validated: 1
EndChar

StartChar: D
Encoding: 68 68 57
Width: 793
VWidth: 0
Flags: W
HStem: 0 133.44<169.439 457.164> 666.56 133.44<169.439 457.164>
VStem: 36 133.439<133.44 666.56> 623.76 133.439<298.138 501.862>
LayerCount: 2
Fore
SplineSet
36 800 m 1
 357.19921875 800 l 2
 578.109375 800 757.19921875 620.91015625 757.19921875 400 c 1
 757.19921875 179.08984375 578.109375 0 357.19921875 0 c 2
 36 0 l 1
 36 800 l 1
169.439453125 133.440429688 m 1
 357.19921875 133.440429688 l 2
 504.419921875 133.440429688 623.759765625 252.780273438 623.759765625 400 c 1
 623.759765625 547.219726562 504.419921875 666.559570312 357.19921875 666.559570312 c 2
 169.439453125 666.559570312 l 1
 169.439453125 133.440429688 l 1
EndSplineSet
Validated: 1
EndChar

StartChar: F
Encoding: 70 70 58
Width: 695
VWidth: 0
Flags: W
HStem: 0 21G<36 169.44> 233.28 133.439<169.44 520.01> 666.56 133.44<169.44 659.5>
VStem: 36 133.44<0 233.28 366.72 666.56>
LayerCount: 2
Fore
SplineSet
659.5 666.559570312 m 1
 169.440429688 666.559570312 l 1
 169.440429688 366.719726562 l 1
 520.009765625 366.719726562 l 1
 520.009765625 233.280273438 l 1
 169.440429688 233.280273438 l 1
 169.440429688 0 l 1
 36 0 l 1
 36 800 l 1
 659.5 800 l 1
 659.5 666.559570312 l 1
EndSplineSet
Validated: 1
EndChar

StartChar: G
Encoding: 71 71 59
Width: 829
VWidth: 0
Flags: W
HStem: -5 133.44<320.045 511.079> 300 133.44<414.6 646.6> 671.89 133.44<320.045 511.022>
VStem: 36 133.439<278.357 522.009>
LayerCount: 2
Fore
SplineSet
414.599609375 433.440429688 m 1
 793.19921875 433.440429688 l 1
 793.19921875 372.360351562 l 2
 793.19921875 164.809570312 622.149414062 -5 414.599609375 -5 c 0
 207.049804688 -5 36 164.809570312 36 372.389648438 c 2
 36 428 l 2
 36 635.51953125 207.049804688 805.330078125 414.599609375 805.330078125 c 0
 563.489257812 805.330078125 693.599609375 717.940429688 755.239257812 591.9296875 c 1
 635.989257812 527.01953125 l 1
 596.409179688 612.469726562 511.669921875 671.889648438 414.599609375 671.889648438 c 0
 280.19921875 671.889648438 169.439453125 558 169.439453125 418.809570312 c 2
 169.439453125 381.51953125 l 2
 169.439453125 242.330078125 280.19921875 128.440429688 414.599609375 128.440429688 c 0
 521.509765625 128.440429688 613.44921875 200.48046875 646.599609375 300 c 1
 414.599609375 300 l 1
 414.599609375 433.440429688 l 1
EndSplineSet
Validated: 1
EndChar

StartChar: H
Encoding: 72 72 60
Width: 771
VWidth: 0
Flags: W
HStem: 0 21G<36 169.44 602.04 735.48> 233.28 133.439<169.44 602.04> 780 20G<36 169.44 602.04 735.48>
VStem: 36 133.44<0 233.28 366.72 800> 602.04 133.44<0 233.28 366.72 800>
LayerCount: 2
Fore
SplineSet
602.040039062 800 m 1
 735.48046875 800 l 1
 735.48046875 0 l 1
 602.040039062 0 l 1
 602.040039062 233.280273438 l 1
 169.440429688 233.280273438 l 1
 169.440429688 0 l 1
 36 0 l 1
 36 800 l 1
 169.440429688 800 l 1
 169.440429688 366.719726562 l 1
 602.040039062 366.719726562 l 1
 602.040039062 800 l 1
EndSplineSet
Validated: 1
EndChar

StartChar: I
Encoding: 73 73 61
Width: 205
VWidth: 0
Flags: W
HStem: 0 21G<36 169.439> 780 20G<36 169.439>
VStem: 36 133.439<0 800>
LayerCount: 2
Fore
SplineSet
36 0 m 1
 36 800 l 1
 169.439453125 800 l 1
 169.439453125 0 l 1
 36 0 l 1
EndSplineSet
Validated: 1
EndChar

StartChar: J
Encoding: 74 74 62
Width: 384
VWidth: 0
Flags: W
HStem: 0 133.44<36 172.544> 666.56 133.44<92.8994 214.689>
VStem: 214.689 133.44<175.586 666.56>
LayerCount: 2
Fore
SplineSet
92.8994140625 800 m 1
 348.129882812 800 l 1
 348.129882812 239.830078125 l 2
 348.129882812 107.379882812 240.75 0 108.299804688 0 c 2
 36 0 l 1
 36 133.440429688 l 1
 109.799804688 133.440429688 l 2
 167.69921875 133.440429688 214.689453125 180.430664062 214.689453125 238.330078125 c 2
 214.689453125 666.559570312 l 1
 92.8994140625 666.559570312 l 1
 92.8994140625 800 l 1
EndSplineSet
Validated: 1
EndChar

StartChar: K
Encoding: 75 75 63
Width: 689
VWidth: 0
Flags: W
HStem: 0 21G<36 169.44 444.4 653.11> 780 20G<36 169.44 444.4 653.11>
VStem: 36 133.44<0 294.96 505.04 800>
LayerCount: 2
Fore
SplineSet
653.110351562 800 m 1
 253.110351562 400 l 1
 653.110351562 0 l 1
 464.400390625 0 l 1
 169.440429688 294.959960938 l 1
 169.440429688 0 l 1
 36 0 l 1
 36 800 l 1
 169.440429688 800 l 1
 169.440429688 505.040039062 l 1
 464.400390625 800 l 1
 653.110351562 800 l 1
EndSplineSet
Validated: 1
EndChar

StartChar: L
Encoding: 76 76 64
Width: 687
VWidth: 0
Flags: W
HStem: 0 133.44<169.44 651.5> 780 20G<36 169.44>
VStem: 36 133.44<133.44 800>
LayerCount: 2
Fore
SplineSet
169.440429688 133.440429688 m 1
 651.5 133.440429688 l 1
 651.5 0 l 1
 36 0 l 1
 36 800 l 1
 169.440429688 800 l 1
 169.440429688 133.440429688 l 1
EndSplineSet
Validated: 1
EndChar

StartChar: M
Encoding: 77 77 65
Width: 836
VWidth: 0
Flags: W
HStem: 0 21G<36 169.44 667.38 800.82> 780 20G<36 183.377 653.444 800.82>
VStem: 36 133.44<0 566.6> 667.38 133.44<0 566.6>
LayerCount: 2
Fore
SplineSet
800.8203125 800 m 1
 800.8203125 0 l 1
 667.379882812 0 l 1
 667.379882812 566.599609375 l 1
 418.41015625 209.299804688 l 1
 169.440429688 566.599609375 l 1
 169.440429688 0 l 1
 36 0 l 1
 36 800 l 1
 169.440429688 800 l 1
 418.41015625 442.700195312 l 1
 667.379882812 800 l 1
 800.8203125 800 l 1
EndSplineSet
Validated: 1
EndChar

StartChar: N
Encoding: 78 78 66
Width: 787
VWidth: 0
Flags: W
HStem: 0 21G<36 169.44 618.03 751.48> 780 20G<36 169.44 618.03 751.48>
VStem: 36 133.44<0 581.5 799.96 800> 618.03 133.45<0 0.0400391 218.5 800>
LayerCount: 2
Fore
SplineSet
618.030273438 800 m 1
 751.48046875 800 l 1
 751.48046875 0 l 1
 618.0703125 0 l 1
 618.030273438 0 l 1
 618.030273438 0.0400390625 l 1
 169.440429688 581.5 l 1
 169.440429688 0 l 1
 36 0 l 1
 36 800 l 1
 169.41015625 800 l 1
 169.440429688 800 l 1
 169.440429688 799.959960938 l 1
 618.030273438 218.5 l 1
 618.030273438 800 l 1
EndSplineSet
Validated: 1
EndChar

StartChar: O
Encoding: 79 79 67
Width: 829
VWidth: 0
Flags: W
HStem: -5 133.44<320.045 509.154> 671.89 133.44<320.045 509.154>
VStem: 36 133.439<278.357 522.009> 659.76 133.439<278.339 522.009>
LayerCount: 2
Fore
SplineSet
414.599609375 805.330078125 m 0
 622.149414062 805.330078125 793.19921875 635.51953125 793.19921875 428 c 2
 793.19921875 372.360351562 l 2
 793.19921875 164.809570312 622.149414062 -5 414.599609375 -5 c 0
 207.049804688 -5 36 164.809570312 36 372.389648438 c 2
 36 428 l 2
 36 635.51953125 207.049804688 805.330078125 414.599609375 805.330078125 c 0
659.759765625 381.51953125 m 2
 659.759765625 418.809570312 l 2
 659.759765625 558 549 671.889648438 414.599609375 671.889648438 c 0
 280.19921875 671.889648438 169.439453125 558 169.439453125 418.809570312 c 2
 169.439453125 381.51953125 l 2
 169.439453125 242.330078125 280.19921875 128.440429688 414.599609375 128.440429688 c 0
 549 128.440429688 659.759765625 242.330078125 659.759765625 381.51953125 c 2
EndSplineSet
Validated: 1
EndChar

StartChar: T
Encoding: 84 84 68
Width: 771
VWidth: 0
Flags: W
HStem: 0 21G<319.021 452.46> 666.56 133.44<36 319.021 452.46 735.48>
VStem: 319.021 133.439<0 666.56>
LayerCount: 2
Fore
SplineSet
735.48046875 800 m 1
 735.48046875 666.559570312 l 1
 452.459960938 666.559570312 l 1
 452.459960938 0 l 1
 319.020507812 0 l 1
 319.020507812 666.559570312 l 1
 36 666.559570312 l 1
 36 800 l 1
 735.48046875 800 l 1
EndSplineSet
Validated: 1
EndChar

StartChar: Y
Encoding: 89 89 69
Width: 846
VWidth: 0
Flags: W
HStem: 0 21G<355.601 489.04> 780 20G<36 203.843 642.327 810.18>
VStem: 355.601 133.439<0 267.13>
LayerCount: 2
Fore
SplineSet
810.1796875 800 m 1
 489.040039062 267.129882812 l 1
 489.040039062 0 l 1
 355.600585938 0 l 1
 355.600585938 269.669921875 l 1
 36 800 l 1
 191.790039062 800 l 1
 423.08984375 416.209960938 l 1
 654.379882812 800 l 1
 810.1796875 800 l 1
EndSplineSet
Validated: 1
EndChar

StartChar: Z
Encoding: 90 90 70
Width: 727
VWidth: 0
Flags: W
HStem: 0 133.44<214.939 691.039> 666.56 133.44<36 512.1 690.989 691.039>
LayerCount: 2
Fore
SplineSet
36 133.440429688 m 1
 36 133.379882812 l 1
 36.0498046875 133.440429688 l 1
 36 133.440429688 l 1
36 800 m 1
 691.0390625 800 l 1
 691.0390625 666.620117188 l 1
 691.0390625 666.559570312 l 1
 690.989257812 666.559570312 l 1
 214.939453125 133.440429688 l 1
 691.0390625 133.440429688 l 1
 691.0390625 0 l 1
 36 0 l 1
 36 133.379882812 l 1
 36.0498046875 133.440429688 l 1
 512.099609375 666.559570312 l 1
 36 666.559570312 l 1
 36 800 l 1
EndSplineSet
Validated: 5
EndChar

StartChar: A
Encoding: 65 65 71
Width: 923
VWidth: 0
Flags: W
HStem: 0 21G<36 190.685 733.165 887.85> 233.28 133.439<343.68 580.18> 780 20G<380.175 543.684>
LayerCount: 2
Fore
SplineSet
741.989257812 0 m 1
 639.059570312 233.280273438 l 1
 284.799804688 233.280273438 l 1
 181.859375 0 l 1
 36 0 l 1
 389 800 l 1
 534.859375 800 l 1
 887.849609375 0 l 1
 741.989257812 0 l 1
343.6796875 366.719726562 m 1
 580.1796875 366.719726562 l 1
 461.9296875 634.719726562 l 1
 343.6796875 366.719726562 l 1
EndSplineSet
Validated: 1
EndChar

StartChar: B
Encoding: 66 66 72
Width: 717
VWidth: 0
Flags: W
HStem: 0 133.44<169.439 506.533> 333.28 133.439<169.439 509.894> 666.56 133.44<169.439 506.533>
VStem: 36 133.439<133.44 333.28 466.72 666.56> 548.13 133.439<175.04 294.297 505.703 624.96>
CounterMasks: 1 e0
LayerCount: 2
Fore
SplineSet
681.569335938 566.639648438 m 1
 681.569335938 566.571289062 681.569335938 566.459960938 681.569335938 566.390625 c 0
 681.569335938 512.327148438 650.1875 437.784179688 611.51953125 400 c 1
 650.1875 362.215820312 681.569335938 287.672851562 681.569335938 233.609375 c 0
 681.569335938 233.540039062 681.569335938 233.428710938 681.569335938 233.360351562 c 1
 681.569335938 104.48046875 577.099609375 0 448.209960938 0 c 2
 36 0 l 1
 36 800 l 1
 448.209960938 800 l 2
 577.099609375 800 681.569335938 695.51953125 681.569335938 566.639648438 c 1
548.129882812 233.360351562 m 1
 548.129882812 233.362304688 548.129882812 233.3671875 548.129882812 233.370117188 c 0
 548.129882812 288.514648438 503.374023438 333.274414062 448.229492188 333.280273438 c 2
 169.439453125 333.280273438 l 1
 169.439453125 133.440429688 l 1
 448.209960938 133.440429688 l 2
 448.211914062 133.440429688 448.216796875 133.440429688 448.219726562 133.440429688 c 0
 503.370117188 133.440429688 548.129882812 178.19921875 548.129882812 233.349609375 c 0
 548.129882812 233.352539062 548.129882812 233.357421875 548.129882812 233.360351562 c 1
448.209960938 466.719726562 m 1
 448.26953125 466.719726562 l 2
 503.392578125 466.748046875 548.129882812 511.506835938 548.129882812 566.629882812 c 0
 548.129882812 566.6328125 548.129882812 566.637695312 548.129882812 566.639648438 c 1
 548.129882812 621.795898438 503.365234375 666.559570312 448.209960938 666.559570312 c 2
 169.439453125 666.559570312 l 1
 169.439453125 466.719726562 l 1
 448.209960938 466.719726562 l 1
EndSplineSet
Validated: 1
EndChar

StartChar: P
Encoding: 80 80 73
Width: 717
VWidth: 0
Flags: W
HStem: 0 21G<36 169.44> 233.28 133.439<169.44 475.781> 666.56 133.44<169.44 475.785>
VStem: 36 133.44<0 233.28 366.72 666.56> 548.13 133.44<438.992 594.287>
LayerCount: 2
Fore
SplineSet
398.209960938 800 m 2
 554.709960938 800 681.5703125 673.139648438 681.5703125 516.639648438 c 1
 681.5703125 360.139648438 554.700195312 233.280273438 398.209960938 233.280273438 c 2
 169.440429688 233.280273438 l 1
 169.440429688 0 l 1
 36 0 l 1
 36 800 l 1
 398.209960938 800 l 2
548.129882812 516.639648438 m 0
 548.129882812 599.395507812 480.965820312 666.559570312 398.209960938 666.559570312 c 2
 169.440429688 666.559570312 l 1
 169.440429688 366.719726562 l 1
 398.209960938 366.719726562 l 2
 480.965820312 366.719726562 548.129882812 433.883789062 548.129882812 516.639648438 c 0
EndSplineSet
Validated: 1
EndChar

StartChar: Q
Encoding: 81 81 74
Width: 840
VWidth: 0
Flags: W
HStem: -18.0801 133.44<728.131 804.13> -5 133.44<320.497 511.023> 227.359 133.438<341.627 487.573> 671.89 133.44<320.045 509.154>
VStem: 36 133.439<279.676 522.009> 659.76 133.439<279.673 522.009>
LayerCount: 2
Fore
SplineSet
715.649414062 144.490234375 m 1x7c
 737.46875 128.547851562 777.107421875 115.498046875 804.129882812 115.360351562 c 1
 804.129882812 -18.080078125 l 1xbc
 772.583984375 -18.0185546875 723.416015625 -7.9609375 694.379882812 4.3701171875 c 0
 670.610351562 14.4375 635.630859375 36.4931640625 616.299804688 53.599609375 c 1
 565.35546875 21.2529296875 475.033203125 -5 414.6875 -5 c 0
 414.663085938 -5 414.624023438 -5 414.599609375 -5 c 0
 207.049804688 -5 36 164.809570312 36 372.389648438 c 2
 36 428 l 2
 36 635.51953125 207.049804688 805.330078125 414.599609375 805.330078125 c 0
 622.149414062 805.330078125 793.19921875 635.51953125 793.19921875 428 c 2
 793.19921875 372.360351562 l 2
 793.19921875 286.940429688 764.219726562 207.919921875 715.649414062 144.490234375 c 1x7c
169.439453125 418.809570312 m 2
 169.439453125 381.51953125 l 2
 169.439453125 381.4296875 169.439453125 381.283203125 169.439453125 381.192382812 c 0
 169.439453125 346.284179688 182.6015625 292.86328125 198.819335938 261.950195312 c 1
 203.373046875 267.176757812 208.129882812 272.259765625 213.08984375 277.200195312 c 0
 234.870117188 298.944335938 275.548828125 326.330078125 303.889648438 338.330078125 c 0
 333.1875 350.732421875 382.78515625 360.797851562 414.599609375 360.797851562 c 0
 446.4140625 360.797851562 496.01171875 350.732421875 525.309570312 338.330078125 c 0
 553.650390625 326.330078125 594.329101562 298.944335938 616.109375 277.200195312 c 0
 621.076171875 272.24609375 625.833007812 267.16015625 630.379882812 261.940429688 c 1
 646.59765625 292.865234375 659.759765625 346.3046875 659.759765625 381.224609375 c 0
 659.759765625 381.305664062 659.759765625 381.438476562 659.759765625 381.51953125 c 2
 659.759765625 418.809570312 l 2
 659.759765625 558 549 671.889648438 414.599609375 671.889648438 c 0
 280.19921875 671.889648438 169.439453125 558 169.439453125 418.809570312 c 2
290.75 163.48046875 m 1
 322.196289062 144.138671875 377.680664062 128.440429688 414.599609375 128.440429688 c 0x7c
 451.518554688 128.440429688 507.002929688 144.138671875 538.44921875 163.48046875 c 1
 513.360351562 198.741210938 457.875976562 227.359375 414.599609375 227.359375 c 0
 371.323242188 227.359375 315.838867188 198.741210938 290.75 163.48046875 c 1
EndSplineSet
Validated: 1
EndChar

StartChar: R
Encoding: 82 82 75
Width: 718
VWidth: 0
Flags: W
HStem: 0 21G<36 169.431 500.101 682.05> 233.28 133.439<169.431 339.83> 666.56 133.44<169.431 475.781>
VStem: 36 133.431<0 233.28 366.72 666.56> 548.13 133.431<439.058 594.296>
LayerCount: 2
Fore
SplineSet
682.049804688 0 m 1
 515.129882812 0 l 1
 339.830078125 233.280273438 l 1
 169.430664062 233.280273438 l 1
 169.430664062 0 l 1
 36 0 l 1
 36 800 l 1
 398.209960938 800 l 2
 554.700195312 800 681.560546875 673.139648438 681.560546875 516.669921875 c 1
 681.560546875 393.870117188 603.450195312 289.33984375 494.209960938 250 c 1
 682.049804688 0 l 1
169.430664062 666.559570312 m 1
 169.430664062 366.719726562 l 1
 398.209960938 366.719726562 l 2
 480.965820312 366.719726562 548.129882812 433.883789062 548.129882812 516.639648438 c 1
 548.129882812 599.395507812 480.965820312 666.559570312 398.209960938 666.559570312 c 0
 169.430664062 666.559570312 l 1
EndSplineSet
Validated: 1
EndChar

StartChar: U
Encoding: 85 85 76
Width: 727
VWidth: 0
Flags: W
HStem: -5 133.44<274.498 452.502> 780 20G<36 169.44 557.56 691>
VStem: 36 133.44<234.153 800> 557.56 133.44<234.153 800>
LayerCount: 2
Fore
SplineSet
557.559570312 800 m 1
 691 800 l 1
 691 322.5 l 2
 691 141.629882812 544.370117188 -5 363.5 -5 c 1
 182.629882812 -5 36 141.629882812 36 322.5 c 2
 36 800 l 1
 169.440429688 800 l 1
 169.440429688 322.5 l 2
 169.440429688 215.3203125 256.3203125 128.440429688 363.5 128.440429688 c 1
 470.6796875 128.440429688 557.559570312 215.3203125 557.559570312 322.5 c 2
 557.559570312 800 l 1
EndSplineSet
Validated: 1
EndChar

StartChar: V
Encoding: 86 86 77
Width: 887
VWidth: 0
Flags: W
HStem: 0 21G<362.869 524.311> 780 20G<36 189.071 698.109 851.18>
LayerCount: 2
Fore
SplineSet
706.490234375 800 m 1
 851.1796875 800 l 1
 515.9296875 0 l 1
 371.25 0 l 1
 36 800 l 1
 180.690429688 800 l 1
 443.58984375 172.629882812 l 1
 706.490234375 800 l 1
EndSplineSet
Validated: 1
EndChar

StartChar: W
Encoding: 87 87 78
Width: 1072
VWidth: 0
Flags: W
HStem: 0 21G<233.253 387.478 684.663 838.888> 579 20G<457.56 614.58> 780 20G<36 178.543 893.598 1036.14>
LayerCount: 2
Fore
SplineSet
898.470703125 800 m 1
 1036.140625 800 l 1
 833.830078125 0 l 1
 692.260742188 0 l 1
 536.0703125 411.129882812 l 1
 379.879882812 0 l 1
 238.310546875 0 l 1
 36 800 l 1
 173.669921875 800 l 1
 320.830078125 196 l 1
 464.700195312 599 l 1
 607.440429688 599 l 1
 751.310546875 196 l 1
 898.470703125 800 l 1
EndSplineSet
Validated: 1
EndChar

StartChar: X
Encoding: 88 88 79
Width: 880
VWidth: 0
Flags: W
HStem: 0 21G<36 222.58 657.699 844.279> 780 20G<36 222.58 657.699 844.279>
LayerCount: 2
Fore
SplineSet
525.459960938 400 m 1
 844.279296875 0 l 1
 673.639648438 0 l 1
 440.139648438 292.959960938 l 1
 206.639648438 0 l 1
 36 0 l 1
 354.819335938 400 l 1
 36 800 l 1
 206.639648438 800 l 1
 440.139648438 507.040039062 l 1
 673.639648438 800 l 1
 844.279296875 800 l 1
 525.459960938 400 l 1
EndSplineSet
Validated: 1
EndChar

StartChar: exclam
Encoding: 33 33 80
Width: 205
VWidth: 0
Flags: W
HStem: 0 133.44<53.3325 152.107> 780 20G<36 169.439>
VStem: 36 133.439<17.3325 116.108 200 800>
LayerCount: 2
Fore
SplineSet
36 200 m 1
 36 800 l 1
 169.439453125 800 l 1
 169.439453125 200 l 1
 36 200 l 1
36 66.7197265625 m 0
 36 103.568359375 65.87109375 133.440429688 102.719726562 133.440429688 c 0
 139.568359375 133.440429688 169.439453125 103.568359375 169.439453125 66.7197265625 c 0
 169.439453125 29.87109375 139.568359375 0 102.719726562 0 c 0
 65.87109375 0 36 29.87109375 36 66.7197265625 c 0
EndSplineSet
Validated: 1
EndChar

StartChar: numbersign
Encoding: 35 35 81
Width: 672
VWidth: 0
Flags: W
HStem: 0 21G<167.89 277.11 394.89 504.11> 131.89 109.221<36 167.89 277.11 394.89 504.11 636> 358.89 109.221<36 167.89 277.11 394.89 504.11 636> 580 20G<167.89 277.11 394.89 504.11>
VStem: 167.89 109.221<0 131.89 241.11 358.89 468.11 600> 394.89 109.221<0 131.89 241.11 358.89 468.11 600>
LayerCount: 2
Fore
SplineSet
636 358.889648438 m 1
 504.110351562 358.889648438 l 1
 504.110351562 241.110351562 l 1
 636 241.110351562 l 1
 636 131.889648438 l 1
 504.110351562 131.889648438 l 1
 504.110351562 0 l 1
 394.889648438 0 l 1
 394.889648438 131.889648438 l 1
 277.110351562 131.889648438 l 1
 277.110351562 0 l 1
 167.889648438 0 l 1
 167.889648438 131.889648438 l 1
 36 131.889648438 l 1
 36 241.110351562 l 1
 167.889648438 241.110351562 l 1
 167.889648438 358.889648438 l 1
 36 358.889648438 l 1
 36 468.110351562 l 1
 167.889648438 468.110351562 l 1
 167.889648438 600 l 1
 277.110351562 600 l 1
 277.110351562 468.110351562 l 1
 394.889648438 468.110351562 l 1
 394.889648438 600 l 1
 504.110351562 600 l 1
 504.110351562 468.110351562 l 1
 636 468.110351562 l 1
 636 358.889648438 l 1
394.889648438 241.110351562 m 1
 394.889648438 358.889648438 l 1
 277.110351562 358.889648438 l 1
 277.110351562 241.110351562 l 1
 394.889648438 241.110351562 l 1
EndSplineSet
Validated: 1
EndChar

StartChar: dollar
Encoding: 36 36 82
Width: 589
VWidth: 0
Flags: W
HStem: 0 21G<228.106 361.546> 780 20G<228.106 361.546>
VStem: 228.106 133.439<0 103.125 696.85 800>
LayerCount: 2
Fore
SplineSet
533.40625 359 m 0
 548.56640625 333.950195312 555.276367188 303.709960938 553.326171875 269.129882812 c 2
 553.24609375 268.219726562 l 2
 552.986328125 266.290039062 546.516601562 220.3203125 508.885742188 175.9296875 c 0
 486.845703125 149.9296875 458.646484375 129.830078125 425.0859375 116.209960938 c 0
 408.103515625 109.434570312 379.637695312 101.782226562 361.545898438 99.1298828125 c 1
 361.545898438 0 l 1
 228.106445312 0 l 1
 228.106445312 100.969726562 l 1
 162.3359375 111.610351562 112.81640625 135.919921875 80.5166015625 173.509765625 c 0
 37.056640625 224.049804688 41.8359375 279.639648438 42.056640625 281.98046875 c 2
 42.986328125 291.75 l 1
 162.576171875 304.379882812 l 1
 163.125976562 291.830078125 l 2
 163.3359375 289.0703125 169.826171875 221.950195312 284.436523438 215.509765625 c 0
 394.3359375 209.33984375 411.715820312 269.719726562 413.436523438 277.190429688 c 0
 414.49609375 312.709960938 353.436523438 324.01953125 282.826171875 337.099609375 c 0
 227.436523438 347.360351562 164.635742188 359 116.616210938 385.709960938 c 0
 89.5361328125 400.76953125 69.81640625 418.900390625 56.326171875 441.129882812 c 0
 41.095703125 466.16015625 34.3857421875 496.349609375 36.326171875 530.870117188 c 2
 36.40625 531.780273438 l 2
 36.666015625 533.709960938 43.1357421875 579.6796875 80.7666015625 624.0703125 c 0
 102.806640625 650.0703125 131.005859375 670.169921875 164.56640625 683.790039062 c 0
 181.549804688 690.564453125 210.015625 698.220703125 228.106445312 700.879882812 c 1
 228.106445312 800 l 1
 361.545898438 800 l 1
 361.545898438 699 l 1
 427.31640625 688.389648438 476.826171875 664.080078125 509.135742188 626.490234375 c 0
 552.595703125 575.950195312 547.81640625 520.360351562 547.595703125 518.01953125 c 2
 546.666015625 508.25 l 1
 427.076171875 495.620117188 l 1
 426.526367188 508.169921875 l 2
 426.31640625 510.9296875 419.826171875 578 305.196289062 584.490234375 c 0
 195.295898438 590.669921875 177.916015625 530.280273438 176.196289062 522.809570312 c 0
 175.116210938 487.030273438 236.255859375 475.809570312 306.965820312 462.809570312 c 0
 362.356445312 452.629882812 425.15625 441.099609375 473.15625 414.419921875 c 0
 500.215820312 399.379882812 519.92578125 381.259765625 533.40625 359 c 0
EndSplineSet
Validated: 33
EndChar

StartChar: percent
Encoding: 37 37 83
Width: 783
VWidth: 0
Flags: W
HStem: 0 21G<131.17 291.088> 231 133.44<566.02 613.823> 587 133.44<170.02 217.823> 726.9 20G<492.732 652.66>
VStem: 36 133.439<516 583.006> 218.41 133.439<516.001 582.976> 432 133.439<160 227.006> 614.41 133.439<160.001 226.976>
LayerCount: 2
Fore
SplineSet
589.919921875 231 m 0
 576.879882812 231 565.439453125 219.76953125 565.439453125 207 c 2
 565.439453125 183.799804688 l 2
 565.439453125 171.009765625 576.870117188 159.799804688 589.919921875 159.799804688 c 0
 602.969726562 159.799804688 614.41015625 171.040039062 614.41015625 183.799804688 c 2
 614.41015625 207 l 2
 614.41015625 219.799804688 602.919921875 231 589.919921875 231 c 0
589.919921875 364.440429688 m 1
 589.919921875 364.41015625 l 1
 676.5 364.41015625 747.849609375 293.5703125 747.849609375 207 c 2
 747.849609375 183.830078125 l 2
 747.849609375 97.259765625 676.490234375 26.4296875 589.919921875 26.4296875 c 0
 503.349609375 26.4296875 432 97.259765625 432 183.830078125 c 2
 432 207.030273438 l 2
 432 293.599609375 503.349609375 364.440429688 589.919921875 364.440429688 c 1
193.919921875 587 m 0
 180.879882812 587 169.439453125 575.76953125 169.439453125 563 c 2
 169.439453125 539.799804688 l 2
 169.439453125 527.009765625 180.870117188 515.799804688 193.919921875 515.799804688 c 0
 206.969726562 515.799804688 218.41015625 527.040039062 218.41015625 539.799804688 c 2
 218.41015625 563 l 2
 218.41015625 575.799804688 206.969726562 587 193.919921875 587 c 0
193.919921875 720.440429688 m 1
 193.919921875 720.41015625 l 1
 280.5 720.41015625 351.849609375 649.5703125 351.849609375 563 c 2
 351.849609375 539.830078125 l 2
 351.849609375 453.259765625 280.490234375 382.4296875 193.919921875 382.4296875 c 0
 107.349609375 382.4296875 36 453.259765625 36 539.830078125 c 2
 36 563.030273438 l 2
 36 649.599609375 107.349609375 720.440429688 193.919921875 720.440429688 c 1
131.169921875 0 m 1
 502.6796875 746.900390625 l 1
 652.66015625 746.900390625 l 1
 281.139648438 0 l 1
 131.169921875 0 l 1
EndSplineSet
Validated: 1
EndChar

StartChar: parenleft
Encoding: 40 40 84
Width: 336
VWidth: 0
Flags: W
HStem: 780 20G<207.33 277.835>
VStem: 36 133.46<147.714 551.706>
LayerCount: 2
Fore
SplineSet
169.459960938 278.51953125 m 2
 169.459960938 60.919921875 300.919921875 19 300.919921875 19 c 1
 273.139648438 -99.5703125 l 1
 141.809570312 -85.9404296875 36.5 74.7001953125 36 269.4296875 c 1
 36 429.5703125 l 2
 36 624.9296875 141.509765625 786.299804688 273.150390625 800 c 1
 300.940429688 681.360351562 l 1
 300.940429688 681.360351562 169.459960938 639.48046875 169.459960938 421.879882812 c 2
 169.459960938 278.51953125 l 2
EndSplineSet
Validated: 524293
EndChar

StartChar: parenright
Encoding: 41 41 85
Width: 336
VWidth: 0
Flags: W
HStem: 780 20G<59.0882 129.435>
VStem: 167.46 133.46<148.689 552.697>
LayerCount: 2
Fore
SplineSet
167.459960938 421.879882812 m 2
 167.459960938 639.48046875 36 681.360351562 36 681.360351562 c 1
 63.76953125 800 l 1
 195.099609375 786.33984375 300.459960938 625.690429688 300.919921875 431 c 1
 300.919921875 270.8203125 l 2
 300.919921875 75.4697265625 195.459960938 -85.91015625 63.76953125 -99.599609375 c 1
 36 19 l 1
 36 19 167.459960938 60.919921875 167.459960938 278.51953125 c 2
 167.459960938 421.879882812 l 2
EndSplineSet
Validated: 524293
EndChar

StartChar: copyright
Encoding: 169 169 86
Width: 831
VWidth: 0
Flags: W
HStem: -104.87 116.28<312.881 518.459> 57.7002 123.043<356.956 481.497> 419.267 123.033<356.947 481.071> 588.59 116.28<312.881 518.459>
VStem: 36 119.24<168.044 431.973> 192.25 123.03<222.752 377.258> 676.1 119.24<168.027 431.973>
LayerCount: 2
Fore
SplineSet
765.259765625 473.469726562 m 0
 781.864257812 434.720703125 795.33984375 369.05859375 795.33984375 326.90234375 c 0
 795.33984375 326.766601562 795.33984375 326.545898438 795.33984375 326.41015625 c 2
 795.33984375 273.58984375 l 2
 795.33984375 273.454101562 795.33984375 273.233398438 795.33984375 273.09765625 c 0
 795.33984375 230.94140625 781.864257812 165.279296875 765.259765625 126.530273438 c 0
 731.708984375 48.49609375 641.029296875 -41.7890625 562.849609375 -75 c 0
 523.901367188 -91.48828125 457.96484375 -104.870117188 415.669921875 -104.870117188 c 0
 373.375 -104.870117188 307.438476562 -91.48828125 268.490234375 -75 c 0
 190.310546875 -41.7890625 99.630859375 48.49609375 66.080078125 126.530273438 c 0
 49.4755859375 165.279296875 36 230.94140625 36 273.09765625 c 0
 36 273.233398438 36 273.454101562 36 273.58984375 c 2
 36 326.41015625 l 2
 36 326.545898438 36 326.766601562 36 326.90234375 c 0
 36 369.05859375 49.4755859375 434.720703125 66.080078125 473.469726562 c 0
 99.630859375 551.50390625 190.310546875 641.7890625 268.490234375 675 c 0
 307.438476562 691.48828125 373.375 704.870117188 415.669921875 704.870117188 c 0
 457.96484375 704.870117188 523.901367188 691.48828125 562.849609375 675 c 0
 641.029296875 641.7890625 731.708984375 551.50390625 765.259765625 473.469726562 c 0
676.099609375 332.309570312 m 2
 676.099609375 473.629882812 559.26953125 588.58984375 415.669921875 588.58984375 c 0
 272.0703125 588.58984375 155.240234375 473.629882812 155.240234375 332.309570312 c 2
 155.240234375 267.690429688 l 2
 155.240234375 126.41015625 272.0703125 11.41015625 415.669921875 11.41015625 c 0
 559.26953125 11.41015625 676.099609375 126.370117188 676.099609375 267.690429688 c 2
 676.099609375 332.309570312 l 2
522.219726562 518 m 0
 547.956054688 505.014648438 583.127929688 475.948242188 600.729492188 453.120117188 c 2
 611.419921875 439.209960938 l 1
 521.669921875 349.459960938 l 1
 508.280273438 370.459960938 l 2
 491.30078125 397.401367188 451.674804688 419.266601562 419.830078125 419.266601562 c 0
 362.118164062 419.266601562 315.280273438 372.428710938 315.280273438 314.716796875 c 0
 315.280273438 314.678710938 315.280273438 314.618164062 315.280273438 314.580078125 c 2
 315.280273438 285.4296875 l 2
 315.280273438 285.392578125 315.280273438 285.331054688 315.280273438 285.29296875 c 0
 315.280273438 227.581054688 362.118164062 180.743164062 419.830078125 180.743164062 c 0
 451.674804688 180.743164062 491.30078125 202.608398438 508.280273438 229.549804688 c 2
 521.669921875 250.549804688 l 1
 611.439453125 160.799804688 l 1
 600.75 146.889648438 l 2
 562.966796875 97.72265625 481.977539062 57.765625 419.969726562 57.7001953125 c 0
 359.530273438 57.7001953125 302.540039062 81.3095703125 259.299804688 124.349609375 c 0
 216.059570312 167.389648438 192.25 224.349609375 192.25 284.75 c 2
 192.25 315.25 l 2
 192.25 375.650390625 216.129882812 432.669921875 259.299804688 475.650390625 c 0
 302.469726562 518.629882812 359.530273438 542.299804688 419.969726562 542.299804688 c 0
 449.775390625 542.260742188 495.583007812 531.374023438 522.219726562 518 c 0
EndSplineSet
Validated: 1
EndChar

StartChar: registered
Encoding: 174 174 87
Width: 831
VWidth: 0
Flags: W
HStem: -104.87 116.28<312.881 518.459> 387.62 119.229<374.96 477.005> 588.59 116.28<312.881 518.459>
VStem: 36 119.24<168.044 431.973> 255.729 119.23<93.1504 172 291.41 387.62> 488.063 118.536<300.388 378.33> 676.1 119.24<168.027 431.956>
LayerCount: 2
Fore
SplineSet
765.259765625 473.469726562 m 0
 781.864257812 434.720703125 795.33984375 369.05859375 795.33984375 326.90234375 c 0
 795.33984375 326.766601562 795.33984375 326.545898438 795.33984375 326.41015625 c 2
 795.33984375 273.58984375 l 2
 795.33984375 273.454101562 795.33984375 273.233398438 795.33984375 273.09765625 c 0
 795.33984375 230.94140625 781.864257812 165.279296875 765.259765625 126.530273438 c 0
 731.708984375 48.49609375 641.029296875 -41.7890625 562.849609375 -75 c 0
 523.901367188 -91.48828125 457.96484375 -104.870117188 415.669921875 -104.870117188 c 0
 373.375 -104.870117188 307.438476562 -91.48828125 268.490234375 -75 c 0
 190.310546875 -41.7890625 99.630859375 48.49609375 66.080078125 126.530273438 c 0
 49.4755859375 165.279296875 36 230.94140625 36 273.09765625 c 0
 36 273.233398438 36 273.454101562 36 273.58984375 c 2
 36 326.41015625 l 2
 36 326.545898438 36 326.766601562 36 326.90234375 c 0
 36 369.05859375 49.4755859375 434.720703125 66.080078125 473.469726562 c 0
 99.630859375 551.50390625 190.310546875 641.7890625 268.490234375 675 c 0
 307.438476562 691.48828125 373.375 704.870117188 415.669921875 704.870117188 c 0
 457.96484375 704.870117188 523.901367188 691.48828125 562.849609375 675 c 0
 641.029296875 641.7890625 731.708984375 551.50390625 765.259765625 473.469726562 c 0
415.669921875 11.41015625 m 0
 559.26953125 11.41015625 676.099609375 126.370117188 676.099609375 267.690429688 c 2
 676.099609375 332.309570312 l 2
 676.099609375 473.58984375 559.26953125 588.58984375 415.669921875 588.58984375 c 0
 272.0703125 588.58984375 155.240234375 473.629882812 155.240234375 332.309570312 c 2
 155.240234375 267.690429688 l 2
 155.240234375 126.41015625 272.0703125 11.41015625 415.669921875 11.41015625 c 0
439.259765625 506.849609375 m 2
 531.530273438 506.849609375 606.599609375 431.780273438 606.599609375 339.509765625 c 0
 606.598632812 277.3046875 559.818359375 207.833984375 502.1796875 184.440429688 c 1
 590.33984375 93.150390625 l 1
 447.669921875 93.150390625 l 1
 374.959960938 172 l 1
 374.959960938 93.150390625 l 1
 255.729492188 93.150390625 l 1
 255.729492188 506.849609375 l 1
 439.259765625 506.849609375 l 2
439.259765625 291.41015625 m 2
 439.451171875 291.407226562 439.76171875 291.405273438 439.953125 291.405273438 c 0
 466.509765625 291.405273438 488.063476562 312.958007812 488.063476562 339.514648438 c 0
 488.063476562 366.071289062 466.509765625 387.625 439.953125 387.625 c 0
 439.76171875 387.625 439.451171875 387.623046875 439.259765625 387.620117188 c 2
 374.959960938 387.620117188 l 1
 374.959960938 291.41015625 l 1
 439.259765625 291.41015625 l 2
EndSplineSet
Validated: 1
EndChar

StartChar: multiply
Encoding: 170 215 88
Width: 468
VWidth: 0
Flags: W
LayerCount: 2
Fore
SplineSet
432.619140625 196.049804688 m 1
 338.259765625 101.690429688 l 1
 234.309570312 205.639648438 l 1
 130.359375 101.690429688 l 1
 36 196.049804688 l 1
 139.94921875 300 l 1
 36 403.950195312 l 1
 130.359375 498.309570312 l 1
 234.309570312 394.360351562 l 1
 338.259765625 498.309570312 l 1
 432.619140625 403.950195312 l 1
 328.669921875 300 l 1
 432.619140625 196.049804688 l 1
EndSplineSet
Validated: 1
EndChar

StartChar: period
Encoding: 46 46 89
Width: 205
VWidth: 0
Flags: W
HStem: 0 133.44<53.3325 152.107>
VStem: 36 133.439<17.3325 116.108>
LayerCount: 2
Fore
SplineSet
36 66.7197265625 m 0
 36 103.568359375 65.87109375 133.440429688 102.719726562 133.440429688 c 0
 139.568359375 133.440429688 169.439453125 103.568359375 169.439453125 66.7197265625 c 0
 169.439453125 29.87109375 139.568359375 0 102.719726562 0 c 0
 65.87109375 0 36 29.87109375 36 66.7197265625 c 0
EndSplineSet
Validated: 1
EndChar

StartChar: comma
Encoding: 44 44 90
Width: 231
VWidth: 0
Flags: W
HStem: -59.2998 224.3
VStem: 87 108.619<77.1161 138.814>
LayerCount: 2
Fore
SplineSet
113.159179688 -59.2998046875 m 5
 36 1 l 5
 55.19921875 36.2802734375 85.669921875 130 87 165 c 5
 195.619140625 137.009765625 l 5
 168.109375 28.919921875 135.44921875 -29.48046875 113.159179688 -59.2998046875 c 5
EndSplineSet
Validated: 1
EndChar

StartChar: at
Encoding: 64 64 91
Width: 831
VWidth: 0
Flags: W
HStem: -104.869 116.239<312.879 519.261> 57.7002 123.484<352.323 478.827 644.291 675.311> 419.21 123.09<352.693 478.638> 588.59 116.28<312.881 518.459>
VStem: 36 119.24<168.004 431.973> 187.95 123.09<222.879 377.169> 520.3 123.09<222.879 377.169> 676.1 119.24<184.654 431.956>
LayerCount: 2
Fore
SplineSet
765.259765625 473.469726562 m 0
 781.864257812 434.720703125 795.33984375 369.05859375 795.33984375 326.90234375 c 0
 795.33984375 326.766601562 795.33984375 326.545898438 795.33984375 326.41015625 c 2
 795.33984375 195.219726562 l 2
 795.33984375 119.389648438 733.650390625 57.7001953125 657.8203125 57.7001953125 c 0
 657.793945312 57.7001953125 657.752929688 57.7001953125 657.7265625 57.7001953125 c 0
 623.19921875 57.7001953125 576.787109375 78.845703125 554.129882812 104.900390625 c 1
 520.374023438 78.845703125 458.37109375 57.7001953125 415.729492188 57.7001953125 c 0
 415.712890625 57.7001953125 415.686523438 57.7001953125 415.669921875 57.7001953125 c 0
 355.229492188 57.7001953125 298.240234375 81.3095703125 255 124.349609375 c 0
 211.759765625 167.389648438 187.950195312 224.349609375 187.950195312 284.75 c 2
 187.950195312 315.25 l 2
 187.950195312 375.650390625 211.830078125 432.669921875 255 475.650390625 c 0
 298.169921875 518.629882812 355.229492188 542.299804688 415.669921875 542.299804688 c 0
 476.110351562 542.299804688 533.099609375 518.690429688 576.33984375 475.650390625 c 0
 619.580078125 432.610351562 643.389648438 375.650390625 643.389648438 315.25 c 2
 643.389648438 197.139648438 l 2
 643.607421875 188.333007812 650.934570312 181.184570312 659.745117188 181.184570312 c 0
 668.5546875 181.184570312 675.881835938 188.333007812 676.099609375 197.139648438 c 2
 676.099609375 332.309570312 l 2
 676.099609375 473.58984375 559.26953125 588.58984375 415.669921875 588.58984375 c 0
 272.0703125 588.58984375 155.240234375 473.629882812 155.240234375 332.309570312 c 2
 155.240234375 267.650390625 l 2
 155.240234375 126.370117188 272.0703125 11.3701171875 415.669921875 11.3701171875 c 0
 451.30859375 11.400390625 505.856445312 24.83984375 537.4296875 41.3701171875 c 2
 558.08984375 52.2197265625 l 1
 596.26953125 -59.330078125 l 1
 580.33984375 -67.0498046875 l 2
 537.284179688 -87.9267578125 463.504882812 -104.869140625 415.655273438 -104.869140625 c 0
 373.364257812 -104.869140625 307.434570312 -91.48828125 268.490234375 -75 c 0
 190.310546875 -41.7890625 99.630859375 48.49609375 66.080078125 126.530273438 c 0
 49.4755859375 165.279296875 36 230.94140625 36 273.09765625 c 0
 36 273.233398438 36 273.454101562 36 273.58984375 c 2
 36 326.41015625 l 2
 36 326.545898438 36 326.766601562 36 326.90234375 c 0
 36 369.05859375 49.4755859375 434.720703125 66.080078125 473.469726562 c 0
 99.630859375 551.50390625 190.310546875 641.7890625 268.490234375 675 c 0
 307.438476562 691.48828125 373.375 704.870117188 415.669921875 704.870117188 c 0
 457.96484375 704.870117188 523.901367188 691.48828125 562.849609375 675 c 0
 641.029296875 641.7890625 731.708984375 551.50390625 765.259765625 473.469726562 c 0
415.669921875 180.790039062 m 0
 473.359375 180.856445312 520.233398438 227.73046875 520.299804688 285.419921875 c 2
 520.299804688 314.580078125 l 2
 520.299804688 372.3359375 473.42578125 419.209960938 415.669921875 419.209960938 c 0
 357.9140625 419.209960938 311.040039062 372.3359375 311.040039062 314.580078125 c 2
 311.040039062 285.419921875 l 2
 311.106445312 227.73046875 357.98046875 180.856445312 415.669921875 180.790039062 c 0
EndSplineSet
Validated: 1
EndChar

StartChar: semicolon
Encoding: 59 59 92
Width: 231
VWidth: 0
Flags: W
HStem: 349.55 133.44<66.4223 165.197>
VStem: 49.0898 133.439<366.883 465.657> 87 108.619<77.1161 138.814>
LayerCount: 2
Fore
SplineSet
113.159179688 -59.2998046875 m 5xa0
 36 1 l 5
 55.19921875 36.2802734375 85.669921875 130 87 165 c 5
 195.619140625 137.009765625 l 5
 168.109375 28.919921875 135.44921875 -29.48046875 113.159179688 -59.2998046875 c 5xa0
49.08984375 416.26953125 m 0xc0
 49.08984375 453.118164062 78.9609375 482.990234375 115.809570312 482.990234375 c 0
 152.658203125 482.990234375 182.529296875 453.118164062 182.529296875 416.26953125 c 0
 182.529296875 379.421875 152.658203125 349.549804688 115.809570312 349.549804688 c 0
 78.9609375 349.549804688 49.08984375 379.421875 49.08984375 416.26953125 c 0xc0
EndSplineSet
Validated: 1
EndChar

StartChar: braceleft
Encoding: 123 123 93
Width: 376
VWidth: 0
Flags: W
HStem: 304.89 90.5605<36 83.7713> 780 20G<255.67 324.418>
VStem: 84.0801 133.68<87.805 303.868 396.532 612.595>
LayerCount: 2
Fore
SplineSet
217.759765625 138.879882812 m 2
 217.759765625 93.48046875 284.83984375 20.6298828125 340 11.58984375 c 1
 321 -99.599609375 l 1
 190.33984375 -99.599609375 84.080078125 34.6904296875 84.080078125 146.76953125 c 2
 84.080078125 279.889648438 l 2
 84.080078125 292.599609375 72.099609375 304.889648438 57.330078125 304.889648438 c 2
 36 304.889648438 l 1
 36 395.450195312 l 1
 57.330078125 395.450195312 l 2
 72.080078125 395.450195312 84.080078125 407.76953125 84.080078125 420.450195312 c 2
 84.080078125 553.629882812 l 2
 84.080078125 665.709960938 190.33984375 800 321 800 c 1
 340 688.809570312 l 1
 284.83984375 679.76953125 217.759765625 606.919921875 217.759765625 561.509765625 c 2
 217.759765625 455.860351562 l 2
 217.759765625 392.129882812 159.509765625 350.200195312 159.509765625 350.200195312 c 1
 159.509765625 350.200195312 217.759765625 308.26953125 217.759765625 244.540039062 c 2
 217.759765625 138.879882812 l 2
EndSplineSet
Validated: 524293
EndChar

StartChar: braceright
Encoding: 125 125 94
Width: 376
VWidth: 0
Flags: W
HStem: 304.89 90.5605<292.229 340> 780 20G<51.5824 120.33>
VStem: 158.24 133.68<87.805 303.868 396.532 612.595>
LayerCount: 2
Fore
SplineSet
158.240234375 138.879882812 m 2
 158.240234375 244.540039062 l 2
 158.240234375 308.26953125 216.490234375 350.200195312 216.490234375 350.200195312 c 1
 216.490234375 350.200195312 158.240234375 392.129882812 158.240234375 455.860351562 c 2
 158.240234375 561.509765625 l 2
 158.240234375 606.919921875 91.16015625 679.76953125 36 688.809570312 c 1
 55 800 l 1
 185.66015625 800 291.919921875 665.709960938 291.919921875 553.629882812 c 2
 291.919921875 420.450195312 l 2
 291.919921875 407.76953125 303.919921875 395.450195312 318.669921875 395.450195312 c 2
 340 395.450195312 l 1
 340 304.889648438 l 1
 318.669921875 304.889648438 l 2
 303.900390625 304.889648438 291.919921875 292.599609375 291.919921875 279.889648438 c 2
 291.919921875 146.76953125 l 2
 291.919921875 34.6904296875 185.66015625 -99.599609375 55 -99.599609375 c 1
 36 11.58984375 l 1
 91.16015625 20.6298828125 158.240234375 93.48046875 158.240234375 138.879882812 c 2
EndSplineSet
Validated: 524293
EndChar

StartChar: equal
Encoding: 61 61 95
Width: 489
VWidth: 0
Flags: W
HStem: 131.28 133.439<36 453.729> 335.28 133.439<36 453.729>
LayerCount: 2
Fore
SplineSet
36 335.280273438 m 1
 36 468.719726562 l 1
 453.729492188 468.719726562 l 1
 453.729492188 335.280273438 l 1
 36 335.280273438 l 1
36 131.280273438 m 1
 36 264.719726562 l 1
 453.729492188 264.719726562 l 1
 453.729492188 131.280273438 l 1
 36 131.280273438 l 1
EndSplineSet
Validated: 1
EndChar

StartChar: bracketleft
Encoding: 91 91 96
Width: 341
VWidth: 0
Flags: W
HStem: -99.5996 133.439<169.439 305.68> 666.56 133.44<169.439 305.68>
VStem: 36 269.68<-99.5996 33.8398 666.56 800> 36 133.439<33.8398 666.56>
LayerCount: 2
Fore
SplineSet
305.6796875 -99.599609375 m 1xe0
 36 -99.599609375 l 1
 36 800 l 1
 305.6796875 800 l 1
 305.6796875 666.559570312 l 1xe0
 169.439453125 666.559570312 l 1
 169.439453125 33.83984375 l 1xd0
 305.6796875 33.83984375 l 1
 305.6796875 -99.599609375 l 1xe0
EndSplineSet
Validated: 1
EndChar

StartChar: bracketright
Encoding: 93 93 97
Width: 341
VWidth: 0
Flags: W
HStem: -99.5996 133.439<36 172.24> 666.56 133.44<36 172.24>
VStem: 36 269.68<-99.5996 33.8398 666.56 800> 172.24 133.439<33.8398 666.56>
LayerCount: 2
Fore
SplineSet
36 800 m 1xe0
 305.6796875 800 l 1
 305.6796875 -99.599609375 l 1
 36 -99.599609375 l 1
 36 33.83984375 l 1xe0
 172.240234375 33.83984375 l 1
 172.240234375 666.559570312 l 1xd0
 36 666.559570312 l 1
 36 800 l 1xe0
EndSplineSet
Validated: 1
EndChar

StartChar: divide
Encoding: 186 247 98
Width: 434
VWidth: 0
Flags: W
HStem: 79.5498 133.44<167.863 266.637> 244.28 104.72<36 398.5> 380.29 133.44<167.863 266.637>
VStem: 150.53 133.439<96.8826 195.657 397.622 496.398>
CounterMasks: 1 e0
LayerCount: 2
Fore
SplineSet
36 244.280273438 m 1
 36 349 l 1
 398.5 349 l 1
 398.5 244.280273438 l 1
 36 244.280273438 l 1
150.530273438 447.009765625 m 0
 150.530273438 483.858398438 180.401367188 513.73046875 217.25 513.73046875 c 0
 254.098632812 513.73046875 283.969726562 483.858398438 283.969726562 447.009765625 c 0
 283.969726562 410.161132812 254.098632812 380.290039062 217.25 380.290039062 c 0
 180.401367188 380.290039062 150.530273438 410.161132812 150.530273438 447.009765625 c 0
150.530273438 146.26953125 m 0
 150.530273438 183.118164062 180.401367188 212.990234375 217.25 212.990234375 c 0
 254.098632812 212.990234375 283.969726562 183.118164062 283.969726562 146.26953125 c 0
 283.969726562 109.421875 254.098632812 79.5498046875 217.25 79.5498046875 c 0
 180.401367188 79.5498046875 150.530273438 109.421875 150.530273438 146.26953125 c 0
EndSplineSet
Validated: 1
EndChar

StartChar: sterling
Encoding: 163 163 99
Width: 553
VWidth: 0
Flags: W
HStem: 0 133.44<277.12 517.87> 225.28 133.439<36 143.68 277.12 517.87> 666.56 133.44<319.635 517.87>
VStem: 143.68 133.44<133.44 225.28 358.75 624.045>
LayerCount: 2
Fore
SplineSet
517.870117188 225.280273438 m 1
 277.120117188 225.280273438 l 1
 277.120117188 133.440429688 l 1
 517.870117188 133.440429688 l 1
 517.870117188 0 l 1
 143.6796875 0 l 1
 143.6796875 225.280273438 l 1
 36 225.280273438 l 1
 36 358.75 l 1
 143.6796875 358.75 l 1
 143.6796875 565.75 l 2
 143.6796875 695.120117188 248.549804688 800 377.9296875 800 c 2
 517.870117188 800 l 1
 517.870117188 666.559570312 l 1
 382.9296875 666.559570312 l 2
 324.522460938 666.559570312 277.120117188 619.157226562 277.120117188 560.75 c 0
 277.120117188 560.7421875 277.120117188 560.728515625 277.120117188 560.719726562 c 2
 277.120117188 358.719726562 l 1
 517.870117188 358.719726562 l 1
 517.870117188 225.280273438 l 1
EndSplineSet
Validated: 1
EndChar

StartChar: cent
Encoding: 162 162 100
Width: 590
VWidth: 0
Flags: W
HStem: 0 229.64<245.917 361.998> 572.36 227.64<245.917 361.988>
VStem: 36 133.439<306.122 495.878> 229.05 133.439<0 103.592 698.41 800>
LayerCount: 2
Fore
SplineSet
450.029296875 300.490234375 m 2
 458.059570312 313.099609375 l 1
 554.739257812 216.41015625 l 1
 548.329101562 208.059570312 l 2
 509.228515625 157.203125 425.971679688 108.4296875 362.489257812 99.1904296875 c 1
 362.489257812 0 l 1
 229.049804688 0 l 1
 229.049804688 111.629882812 l 1
 222.943359375 113.756835938 216.889648438 116.08984375 210.889648438 118.629882812 c 0
 182.547851562 130.631835938 141.864257812 158.017578125 120.079101562 179.759765625 c 0
 65.859375 233.740234375 36 305.16015625 36 380.870117188 c 2
 36 421.049804688 l 2
 36 496.759765625 65.859375 568.16015625 120.079101562 622.16015625 c 0
 141.864257812 643.90234375 182.547851562 671.288085938 210.889648438 683.290039062 c 0
 216.889648438 685.84375 222.943359375 688.176757812 229.049804688 690.290039062 c 1
 229.049804688 800 l 1
 362.489257812 800 l 1
 362.489257812 702.809570312 l 1
 425.981445312 693.577148438 509.251953125 644.803710938 548.359375 593.940429688 c 2
 554.76953125 585.58984375 l 1
 458.029296875 488.900390625 l 1
 450.029296875 501.509765625 l 2
 421.759765625 545.879882812 373.75 572.360351562 321.599609375 572.360351562 c 0
 237.689453125 572.360351562 169.439453125 504.099609375 169.439453125 420.200195312 c 2
 169.439453125 381.799804688 l 2
 169.439453125 297.900390625 237.689453125 229.639648438 321.599609375 229.639648438 c 0
 373.76953125 229.639648438 421.76953125 256.120117188 450.029296875 300.490234375 c 2
EndSplineSet
Validated: 1
EndChar

StartChar: yen
Encoding: 165 165 101
Width: 615
VWidth: 0
Flags: W
HStem: 0 21G<240.78 374.22> 246.73 133.439<82.4697 206.77 408.23 532.53> 780 20G<36 188.194 426.806 579>
VStem: 240.78 133.439<0 246.73>
LayerCount: 2
Fore
SplineSet
434.940429688 800 m 1
 579 800 l 1
 408.23046875 380.169921875 l 1
 532.530273438 380.169921875 l 1
 532.530273438 246.73046875 l 1
 374.219726562 246.73046875 l 1
 374.219726562 0 l 1
 240.780273438 0 l 1
 240.780273438 246.73046875 l 1
 82.4697265625 246.73046875 l 1
 82.4697265625 380.169921875 l 1
 206.76953125 380.169921875 l 1
 36 800 l 1
 180.059570312 800 l 1
 307.5 486.6796875 l 1
 434.940429688 800 l 1
EndSplineSet
Validated: 1
EndChar

StartChar: zero
Encoding: 48 48 102
Width: 650
VWidth: 0
Flags: W
HStem: -3.45996 133.46<260.279 389.721> 630.6 133.4<260.279 389.721>
VStem: 40 133.44<237.965 522.607> 476.56 133.44<237.965 522.607>
LayerCount: 2
Fore
SplineSet
325 764 m 0
 481.240234375 764 610 623.200195312 610 426.620117188 c 2
 610 333.950195312 l 2
 610 137.379882812 481.240234375 -3.4599609375 325 -3.4599609375 c 0
 168.759765625 -3.4599609375 40 137.379882812 40 333.950195312 c 2
 40 426.620117188 l 2
 40 623.200195312 168.759765625 764 325 764 c 0
476.559570312 350 m 2
 476.559570312 410.509765625 l 2
 476.559570312 538.73046875 408.08984375 630.599609375 325 630.599609375 c 0
 241.91015625 630.599609375 173.440429688 538.73046875 173.440429688 410.509765625 c 2
 173.440429688 350.0703125 l 2
 173.440429688 221.83984375 241.91015625 130 325 130 c 0
 408.08984375 130 476.559570312 221.83984375 476.559570312 350 c 2
EndSplineSet
Validated: 1
EndChar

StartChar: one
Encoding: 49 49 103
Width: 317
VWidth: 0
Flags: W
HStem: 0 21G<143.56 277> 613.46 133.44<40 143.56>
VStem: 143.56 133.44<0 613.46>
LayerCount: 2
Fore
SplineSet
40 746.900390625 m 1
 277 746.900390625 l 1
 277 0 l 1
 143.559570312 0 l 1
 143.559570312 613.459960938 l 1
 40 613.459960938 l 1
 40 746.900390625 l 1
EndSplineSet
Validated: 1
EndChar

StartChar: two
Encoding: 50 50 104
Width: 619
VWidth: 0
Flags: W
HStem: 0 133.44<66.5205 105.778 318.061 579.4> 626.285 136.625<234.754 372.006>
VStem: 40 133.4<499.51 565.344> 433.32 133.48<421.356 566.584>
LayerCount: 2
Fore
SplineSet
318.060546875 133.440429688 m 1
 579.400390625 133.440429688 l 1
 579.400390625 0 l 1
 66.5205078125 0 l 1
 66.5205078125 133.440429688 l 1
 66.5302734375 133.440429688 433.3203125 316.509765625 433.3203125 499.509765625 c 0
 431.583984375 569.490234375 373.362304688 626.28515625 303.360351562 626.28515625 c 0
 233.358398438 626.28515625 175.13671875 569.490234375 173.400390625 499.509765625 c 1
 40 499.509765625 l 1
 40 645 157.930664062 762.91015625 303.400390625 762.91015625 c 0
 448.870117188 762.91015625 566.80078125 645 566.80078125 499.509765625 c 0
 566.80078125 357.580078125 443.400390625 213.690429688 318.060546875 133.440429688 c 1
EndSplineSet
Validated: 5
EndChar

StartChar: three
Encoding: 51 51 105
Width: 568
VWidth: 0
Flags: W
HStem: -2.33008 133.375<178.771 337.658> 613.46 133.44<54.4395 296.25>
VStem: 398.93 130.02<190.993 329.486>
LayerCount: 2
Fore
SplineSet
385.889648438 495.4296875 m 1
 464.858398438 454.87109375 528.94921875 349.903320312 528.94921875 261.126953125 c 0
 528.94921875 261.108398438 528.94921875 261.078125 528.94921875 261.059570312 c 0
 528.94921875 115.58984375 411.01953125 -2.330078125 265.549804688 -2.330078125 c 0
 265.521484375 -2.330078125 265.474609375 -2.330078125 265.446289062 -2.330078125 c 0
 183.375 -2.330078125 82.375 54.7138671875 40 125 c 1
 141.109375 190.509765625 l 1
 161.509765625 156.08984375 199.229492188 131.08984375 265.509765625 131.08984375 c 0
 266.453125 131.065429688 267.985351562 131.044921875 268.9296875 131.044921875 c 0
 340.689453125 131.044921875 398.9296875 189.28515625 398.9296875 261.044921875 c 0
 398.9296875 332.8046875 340.689453125 391.044921875 268.9296875 391.044921875 c 0
 267.985351562 391.044921875 266.453125 391.024414062 265.509765625 391 c 2
 183.889648438 391 l 1
 296.25 613.459960938 l 1
 54.439453125 613.459960938 l 1
 54.439453125 746.900390625 l 1
 513.959960938 746.900390625 l 1
 385.889648438 495.4296875 l 1
EndSplineSet
Validated: 1
EndChar

StartChar: four
Encoding: 52 52 106
Width: 710
VWidth: 0
Flags: W
HStem: 0 21G<458 591.399> 132.12 133.439<291.729 457.96 591.399 670.09> 726.9 20G<443.376 591.399>
VStem: 457.96 133.439<0 132.12 265.56 510.67>
LayerCount: 2
Fore
SplineSet
670.08984375 265.559570312 m 1
 670.08984375 132.120117188 l 1
 591.399414062 132.120117188 l 1
 591.399414062 0 l 1
 458 0 l 1
 458 132.120117188 l 1
 40 132.120117188 l 1
 130.5 265.559570312 l 1
 456.939453125 746.900390625 l 1
 591.399414062 746.900390625 l 1
 591.399414062 265.559570312 l 1
 670.08984375 265.559570312 l 1
291.729492188 265.559570312 m 1
 457.959960938 265.559570312 l 1
 457.959960938 510.669921875 l 1
 291.729492188 265.559570312 l 1
EndSplineSet
Validated: 1
EndChar

StartChar: five
Encoding: 53 53 107
Width: 568
VWidth: 0
Flags: W
HStem: -2.33008 133.375<178.835 337.659> 391 133.46<218.69 337.659> 613.46 133.44<218.69 473.95>
VStem: 85.25 133.44<523.21 613.46> 398.971 129.979<189.972 332.133>
LayerCount: 2
Fore
SplineSet
265.55078125 524.459960938 m 0
 411.020507812 524.459960938 528.950195312 406.530273438 528.950195312 261.059570312 c 0
 528.950195312 115.58984375 411.020507812 -2.330078125 265.55078125 -2.330078125 c 0
 265.5234375 -2.330078125 265.479492188 -2.330078125 265.453125 -2.330078125 c 0
 183.379882812 -2.330078125 82.376953125 54.7138671875 40 125 c 1
 141.16015625 190.509765625 l 1
 161.600585938 156.08984375 199.270507812 131.08984375 265.55078125 131.08984375 c 0
 266.494140625 131.065429688 268.026367188 131.044921875 268.970703125 131.044921875 c 0
 340.73046875 131.044921875 398.970703125 189.28515625 398.970703125 261.044921875 c 0
 398.970703125 332.8046875 340.73046875 391.044921875 268.970703125 391.044921875 c 0
 268.026367188 391.044921875 266.494140625 391.024414062 265.55078125 391 c 2
 85.25 391 l 1
 85.25 746.900390625 l 1
 473.950195312 746.900390625 l 1
 473.950195312 613.459960938 l 1
 218.690429688 613.459960938 l 1
 218.690429688 523.209960938 l 1
 234.920898438 524.190429688 250.860351562 524.459960938 265.55078125 524.459960938 c 0
EndSplineSet
Validated: 1
EndChar

StartChar: six
Encoding: 54 54 108
Width: 605
VWidth: 0
Flags: W
HStem: -2.33008 133.44<231.797 373.203>
VStem: 40 133.44<189.461 330.091> 431.56 133.44<189.465 328.947>
LayerCount: 2
Fore
SplineSet
215.5 460 m 1
 271.830078125 539.330078125 565 525 565 260.169921875 c 0
 565 115.190429688 447.469726562 -2.330078125 302.5 -2.330078125 c 0
 157.530273438 -2.330078125 40 115.169921875 40 260.169921875 c 0
 40 519.25 216.08984375 680.23046875 343.809570312 762.91015625 c 1
 410.299804688 660.450195312 l 1
 279.849609375 568.5 215.5 460 215.5 460 c 1
302.5 131.110351562 m 0
 373.741210938 131.110351562 431.559570312 188.928710938 431.559570312 260.169921875 c 0
 431.559570312 331.411132812 373.741210938 389.23046875 302.5 389.23046875 c 0
 231.258789062 389.23046875 173.440429688 331.411132812 173.440429688 260.169921875 c 0
 173.440429688 188.928710938 231.258789062 131.110351562 302.5 131.110351562 c 0
EndSplineSet
Validated: 37
EndChar

StartChar: seven
Encoding: 55 55 109
Width: 604
VWidth: 0
Flags: W
HStem: 0 21G<168.971 313.8> 613.46 133.44<40 408>
VStem: 168.971 133.449<0 137.057>
LayerCount: 2
Fore
SplineSet
168.970703125 0 m 1
 189.020507812 385.559570312 408 613.459960938 408 613.459960938 c 1
 40 613.459960938 l 1
 40 746.900390625 l 1
 564.830078125 746.900390625 l 1
 564.830078125 613.459960938 l 1
 564.830078125 613.459960938 325.180664062 362.610351562 302.419921875 0 c 1
 168.970703125 0 l 1
EndSplineSet
Validated: 1
EndChar

StartChar: eight
Encoding: 56 56 110
Width: 605
VWidth: 0
Flags: W
HStem: -2.33008 133.44<231.797 373.203> 389.23 117.659<258.14 346.86> 629.47 133.44<257.411 347.45>
VStem: 40 133.44<190.624 329.716> 109 132.07<522.597 613.111> 363.65 132.35<522.597 613.111> 431.56 133.44<190.624 329.716>
LayerCount: 2
Fore
SplineSet
465.849609375 465.650390625 m 1xec
 520.581054688 422.223632812 565 330.275390625 565 260.409179688 c 0
 565 260.342773438 565 260.236328125 565 260.169921875 c 0
 565 115.190429688 447.469726562 -2.330078125 302.5 -2.330078125 c 0
 157.530273438 -2.330078125 40 115.169921875 40 260.169921875 c 0
 40 260.236328125 40 260.342773438 40 260.409179688 c 0xf2
 40 330.275390625 84.4189453125 422.223632812 139.150390625 465.650390625 c 1
 122.506835938 491.776367188 109 538.122070312 109 569.099609375 c 0
 109 569.185546875 109 569.32421875 109 569.41015625 c 0
 109 676.280273438 195.629882812 762.91015625 302.5 762.91015625 c 0
 409.370117188 762.91015625 496 676.280273438 496 569.41015625 c 0
 496 569.32421875 496 569.185546875 496 569.099609375 c 0
 496 538.122070312 482.493164062 491.776367188 465.849609375 465.650390625 c 1xec
302.360351562 629.469726562 m 0
 268.528320312 629.469726562 241.0703125 602.01171875 241.0703125 568.1796875 c 0
 241.0703125 534.34765625 268.528320312 506.889648438 302.360351562 506.889648438 c 0
 336.192382812 506.889648438 363.650390625 534.34765625 363.650390625 568.1796875 c 0xec
 363.650390625 602.01171875 336.192382812 629.469726562 302.360351562 629.469726562 c 0
302.5 131.110351562 m 0
 373.741210938 131.110351562 431.559570312 188.928710938 431.559570312 260.169921875 c 0
 431.559570312 331.411132812 373.741210938 389.23046875 302.5 389.23046875 c 0
 231.258789062 389.23046875 173.440429688 331.411132812 173.440429688 260.169921875 c 0xf2
 173.440429688 188.928710938 231.258789062 131.110351562 302.5 131.110351562 c 0
EndSplineSet
Validated: 5
EndChar

StartChar: nine
Encoding: 57 57 111
Width: 605
VWidth: 0
Flags: W
HStem: -2.33008 21G<248.21 325.05> 629.47 133.44<231.797 373.203>
VStem: 40 133.44<431.626 571.115> 431.56 133.44<430.488 571.119>
LayerCount: 2
Fore
SplineSet
389.5 300.580078125 m 1
 333.169921875 221.240234375 40 235.51953125 40 500.41015625 c 0
 40 645.389648438 157.530273438 762.91015625 302.5 762.91015625 c 0
 447.469726562 762.91015625 565 645.41015625 565 500.41015625 c 0
 565 241.3203125 388.91015625 80.349609375 261.190429688 -2.330078125 c 1
 194.700195312 100.120117188 l 1
 325.150390625 192.080078125 389.5 300.580078125 389.5 300.580078125 c 1
302.5 629.469726562 m 0
 231.258789062 629.469726562 173.440429688 571.651367188 173.440429688 500.41015625 c 0
 173.440429688 429.168945312 231.258789062 371.349609375 302.5 371.349609375 c 0
 373.741210938 371.349609375 431.559570312 429.168945312 431.559570312 500.41015625 c 0
 431.559570312 571.651367188 373.741210938 629.469726562 302.5 629.469726562 c 0
EndSplineSet
Validated: 33
EndChar

StartChar: ampersand
Encoding: 38 38 112
Width: 780
VWidth: 0
Flags: W
HStem: -4.70508 133.425<215.394 343.218>
VStem: 36 133.501<174.65 301.475>
LayerCount: 2
Fore
SplineSet
744.05078125 0 m 1
 580.291015625 0 l 1
 492.110351562 123.950195312 l 1
 482.678710938 106.244140625 463.5 80.3720703125 449.30078125 66.2001953125 c 0
 410.158203125 27.060546875 333.463867188 -4.705078125 278.110351562 -4.705078125 c 0
 144.46484375 -4.705078125 36 103.759765625 36 237.404296875 c 0
 36 352.063476562 127.974609375 459.267578125 241.30078125 476.700195312 c 1
 221.640625 504.349609375 l 1
 161.8203125 588.48046875 181.590820312 705.58984375 265.720703125 765.419921875 c 0
 349.850585938 825.25 466.951171875 805.459960938 526.78125 721.330078125 c 0
 586.610351562 637.200195312 566.840820312 520.08984375 482.7109375 460.259765625 c 1
 405.380859375 569.009765625 l 1
 417.861328125 577.88671875 427.990234375 597.520507812 427.990234375 612.8359375 c 0
 427.990234375 642.522460938 403.896484375 666.615234375 374.209960938 666.615234375 c 0
 344.5234375 666.615234375 320.4296875 642.522460938 320.4296875 612.8359375 c 0
 320.4296875 603.356445312 324.887695312 589.39453125 330.380859375 581.669921875 c 0
 330.470703125 581.540039062 330.5703125 581.419921875 330.661132812 581.299804688 c 1
 744.05078125 0 l 1
278.161132812 128.719726562 m 0
 338.075195312 128.780273438 386.754882812 177.456054688 386.8203125 237.370117188 c 0
 386.8203125 237.373046875 386.8203125 237.376953125 386.8203125 237.379882812 c 0
 386.8203125 297.360351562 338.140625 346.040039062 278.161132812 346.040039062 c 0
 218.180664062 346.040039062 169.500976562 297.360351562 169.500976562 237.379882812 c 0
 169.500976562 177.399414062 218.180664062 128.719726562 278.161132812 128.719726562 c 0
EndSplineSet
Validated: 37
EndChar

StartChar: asterisk
Encoding: 42 42 113
Width: 538
VWidth: 0
Flags: W
VStem: 206.58 125.5<379.36 517.94>
LayerCount: 2
Fore
SplineSet
502.66015625 302.830078125 m 1
 370.860351562 260 l 1
 452.3203125 147.889648438 l 1
 350.790039062 74.1201171875 l 1
 269.330078125 186.240234375 l 1
 187.879882812 74.1201171875 l 1
 86.33984375 147.889648438 l 1
 167.799804688 260 l 1
 36 302.830078125 l 1
 74.7802734375 422.190429688 l 1
 206.580078125 379.360351562 l 1
 206.580078125 517.940429688 l 1
 332.080078125 517.940429688 l 1
 332.080078125 379.360351562 l 1
 463.879882812 422.190429688 l 1
 502.66015625 302.830078125 l 1
EndSplineSet
Validated: 1
EndChar

StartChar: plus
Encoding: 43 43 114
Width: 499
VWidth: 0
Flags: W
HStem: 233.28 133.439<36 183.011 316.45 463.461>
VStem: 183.011 133.439<86.2695 233.28 366.72 513.74>
LayerCount: 2
Fore
SplineSet
463.4609375 366.719726562 m 1
 463.4609375 233.280273438 l 1
 316.450195312 233.280273438 l 1
 316.450195312 86.26953125 l 1
 183.010742188 86.26953125 l 1
 183.010742188 233.280273438 l 1
 36 233.280273438 l 1
 36 366.719726562 l 1
 183.010742188 366.719726562 l 1
 183.010742188 513.740234375 l 1
 316.450195312 513.740234375 l 1
 316.450195312 366.719726562 l 1
 463.4609375 366.719726562 l 1
EndSplineSet
Validated: 1
EndChar

StartChar: quotedbl
Encoding: 34 34 115
Width: 369
VWidth: 0
Flags: W
HStem: 494 244
VStem: 64.71 120<568.276 738> 213.42 119.96<568.276 738>
LayerCount: 2
Fore
SplineSet
64.7099609375 738 m 1
 184.709960938 738 l 1
 184.709960938 548 134.610351562 494 134.610351562 494 c 1
 36 548 l 1
 51.6396484375 591.950195312 64.7099609375 624 64.7099609375 738 c 1
213.419921875 738 m 1
 333.379882812 738 l 1
 333.379882812 548 283.3203125 494 283.3203125 494 c 1
 184.709960938 548 l 1
 200.349609375 591.950195312 213.419921875 624 213.419921875 738 c 1
EndSplineSet
Validated: 524289
EndChar

StartChar: colon
Encoding: 58 58 116
Width: 205
VWidth: 0
Flags: W
HStem: 0 133.44<53.3325 152.107> 349.55 133.44<53.3325 152.107>
VStem: 36 133.439<17.3325 116.108 366.883 465.657>
LayerCount: 2
Fore
SplineSet
36 66.7197265625 m 0
 36 103.568359375 65.87109375 133.440429688 102.719726562 133.440429688 c 0
 139.568359375 133.440429688 169.439453125 103.568359375 169.439453125 66.7197265625 c 0
 169.439453125 29.87109375 139.568359375 0 102.719726562 0 c 0
 65.87109375 0 36 29.87109375 36 66.7197265625 c 0
36 416.26953125 m 4
 36 453.118164062 65.87109375 482.990234375 102.719726562 482.990234375 c 4
 139.568359375 482.990234375 169.439453125 453.118164062 169.439453125 416.26953125 c 4
 169.439453125 379.421875 139.568359375 349.549804688 102.719726562 349.549804688 c 4
 65.87109375 349.549804688 36 379.421875 36 416.26953125 c 4
EndSplineSet
Validated: 1
EndChar

StartChar: less
Encoding: 60 60 117
Width: 473
VWidth: 0
Flags: W
LayerCount: 2
Fore
SplineSet
342.9296875 606.9296875 m 1
 437.279296875 512.5703125 l 1
 224.709960938 300 l 1
 437.279296875 87.4296875 l 1
 342.9296875 -6.9296875 l 1
 36 300 l 1
 342.9296875 606.9296875 l 1
EndSplineSet
Validated: 1
EndChar

StartChar: greater
Encoding: 62 62 118
Width: 473
VWidth: 0
Flags: W
LayerCount: 2
Fore
SplineSet
130.349609375 -6.9296875 m 1
 36 87.4296875 l 1
 248.569335938 300 l 1
 36 512.5703125 l 1
 130.349609375 606.9296875 l 1
 437.279296875 300 l 1
 130.349609375 -6.9296875 l 1
EndSplineSet
Validated: 1
EndChar

StartChar: slash
Encoding: 47 47 119
Width: 513
VWidth: 0
Flags: W
HStem: 780 20G<329.642 477.48>
LayerCount: 2
Fore
SplineSet
177.270507812 -114.110351562 m 1
 36 -114.110351562 l 1
 336.209960938 800 l 1
 477.48046875 800 l 1
 177.270507812 -114.110351562 l 1
EndSplineSet
Validated: 1
EndChar

StartChar: backslash
Encoding: 92 92 120
Width: 513
VWidth: 0
Flags: W
HStem: 780 20G<36 183.839>
LayerCount: 2
Fore
SplineSet
336.209960938 -114.110351562 m 1
 36 800 l 1
 177.270507812 800 l 1
 477.48046875 -114.110351562 l 1
 336.209960938 -114.110351562 l 1
EndSplineSet
Validated: 1
EndChar

StartChar: S
Encoding: 83 83 121
Width: 782
VWidth: 0
Flags: W
HStem: -1.92969 143.46<256.822 525.069> 660.76 143.44<261.965 524.348>
VStem: 603.32 143.46<200.581 286.422>
LayerCount: 2
Fore
SplineSet
714.709960938 353 m 0
 735.98046875 324.190429688 746.770507812 288.860351562 746.780273438 247.959960938 c 0
 746.780273438 245.360351562 746.299804688 183.530273438 701.299804688 121.530273438 c 0
 675.030273438 85.330078125 639.030273438 56.5595703125 594.299804688 36.009765625 c 0
 539.509765625 10.830078125 471.389648438 -1.9296875 391.83984375 -1.9296875 c 0
 320.1796875 -1.9296875 257.66015625 8.4404296875 206.020507812 28.900390625 c 0
 162.5703125 46.1103515625 126.440429688 70.5302734375 98.5703125 101.530273438 c 0
 49.3896484375 156.219726562 39.3896484375 215.9296875 37.3896484375 239.0703125 c 2
 36 255 l 1
 180.33984375 276.549804688 l 1
 180.33984375 247.280273438 l 2
 180.379882812 245.6796875 181.469726562 220.799804688 206.060546875 195.58984375 c 0
 230.110351562 170.919921875 281.830078125 141.530273438 391.830078125 141.530273438 c 0
 599.209960938 141.530273438 603.3203125 245.16015625 603.3203125 247.240234375 c 0
 603.25 297.9296875 534.950195312 310.990234375 423.549804688 328.110351562 c 0
 412.41015625 329.8203125 400.889648438 331.58984375 389.310546875 333.450195312 c 2
 380.360351562 334.690429688 l 2
 303.080078125 345.450195312 223.16015625 356.5703125 162.639648438 385.780273438 c 0
 91.099609375 420.299804688 56.2802734375 475.23046875 56.099609375 553.700195312 c 0
 55.5 563 52.400390625 642.389648438 114.759765625 710.099609375 c 0
 172.259765625 772.540039062 265.48046875 804.200195312 391.830078125 804.200195312 c 0
 666.830078125 804.200195312 717.009765625 653.200195312 725.830078125 588.200195312 c 2
 728.150390625 571.5703125 l 1
 586.030273438 550.370117188 l 1
 584.270507812 568.139648438 l 2
 581.5 595.990234375 557.209960938 660.759765625 391.889648438 660.759765625 c 0
 284.700195312 660.759765625 238.110351562 632.759765625 217.889648438 609.280273438 c 0
 196.120117188 583.990234375 199.360351562 557.919921875 199.360351562 557.66015625 c 2
 199.549804688 556.400390625 l 1
 199.549804688 555.129882812 l 2
 199.549804688 502 258.290039062 490.290039062 370.860351562 472.5703125 c 0
 378.52734375 471.36328125 386.360351562 470.120117188 394.360351562 468.83984375 c 2
 410.259765625 466.639648438 l 2
 488.700195312 455.790039062 569.830078125 444.5703125 633.41015625 415.379882812 c 0
 669.259765625 398.919921875 695.849609375 378.509765625 714.709960938 353 c 0
EndSplineSet
Validated: 33
EndChar

StartChar: hyphen
Encoding: 45 45 122
Width: 381
VWidth: 0
Flags: W
HStem: 233.28 133.439<36 345>
VStem: 36 309<233.28 366.72>
LayerCount: 2
Fore
SplineSet
36 233.280273438 m 1
 36 366.719726562 l 1
 345 366.719726562 l 1
 345 233.280273438 l 1
 36 233.280273438 l 1
EndSplineSet
Validated: 1
EndChar

StartChar: question
Encoding: 63 63 123
Width: 610
VWidth: 0
Flags: W
HStem: 0 133.44<256.044 354.819>
VStem: 238.712 133.439<17.3325 116.108>
LayerCount: 2
Fore
SplineSet
238.711914062 66.7197265625 m 0
 238.711914062 103.568359375 268.583007812 133.440429688 305.431640625 133.440429688 c 0
 342.280273438 133.440429688 372.151367188 103.568359375 372.151367188 66.7197265625 c 0
 372.151367188 29.87109375 342.280273438 0 305.431640625 0 c 0
 268.583007812 0 238.711914062 29.87109375 238.711914062 66.7197265625 c 0
495.961914062 721.080078125 m 1
 601.181640625 615.860351562 601.181640625 445.25 495.961914062 340 c 2
 340.122070312 184.240234375 l 1
 245.771484375 278.599609375 l 1
 403.771484375 436.599609375 l 2
 455.662109375 488.490234375 454.662109375 573.610351562 401.551757812 626.719726562 c 1
 348.431640625 679.83984375 263.311523438 680.830078125 211.431640625 628.940429688 c 1
 183.771484375 601.280273438 171.151367188 564.169921875 173.431640625 527.5 c 1
 36.021484375 527.5 l 2
 36.009765625 528.443359375 36 529.973632812 36 530.916992188 c 0
 36 592.4375 71.34765625 677.630859375 114.901367188 721.080078125 c 1
 220.131835938 826.309570312 390.731445312 826.309570312 495.961914062 721.080078125 c 1
EndSplineSet
Validated: 33
EndChar

StartChar: quotesingle
Encoding: 39 39 124
Width: 220
VWidth: 0
Flags: W
HStem: 494 244
VStem: 36 119.96<568.276 738>
LayerCount: 2
Fore
SplineSet
155.959960938 738 m 1
 155.959960938 624 169.030273438 591.950195312 184.66015625 548 c 1
 86.060546875 494 l 1
 86.060546875 494 36 548 36 738 c 1
 155.959960938 738 l 1
EndSplineSet
Validated: 1
EndChar

StartChar: grave
Encoding: 96 96 125
Width: 220
VWidth: 0
Flags: W
HStem: 494 244
VStem: 64.7002 119.96<568.276 738>
LayerCount: 2
Fore
SplineSet
64.7001953125 738 m 1
 184.66015625 738 l 1
 184.66015625 548 134.599609375 494 134.599609375 494 c 1
 36 548 l 1
 51.6298828125 591.950195312 64.7001953125 624 64.7001953125 738 c 1
EndSplineSet
Validated: 1
EndChar

StartChar: bar
Encoding: 124 124 126
Width: 205
VWidth: 0
Flags: W
HStem: 726.9 20G<36 169.439>
VStem: 36 133.439<-152.7 746.9>
LayerCount: 2
Fore
SplineSet
36 -152.700195312 m 1
 36 746.900390625 l 1
 169.439453125 746.900390625 l 1
 169.439453125 -152.700195312 l 1
 36 -152.700195312 l 1
EndSplineSet
Validated: 1
EndChar

StartChar: asciicircum
Encoding: 94 94 127
Width: 532
VWidth: 0
Flags: W
HStem: 280.54 324.46
LayerCount: 2
Fore
SplineSet
496.220703125 374.889648438 m 1
 401.860351562 280.540039062 l 1
 266.110351562 416.290039062 l 1
 130.360351562 280.540039062 l 1
 36 374.889648438 l 1
 266.110351562 605 l 1
 496.220703125 374.889648438 l 1
EndSplineSet
Validated: 1
EndChar

StartChar: underscore
Encoding: 95 95 128
Width: 531
VWidth: 0
Flags: W
HStem: 0 90<36 495.471>
LayerCount: 2
Fore
SplineSet
36 0 m 1
 36 90 l 1
 495.470703125 90 l 1
 495.470703125 0 l 1
 36 0 l 1
EndSplineSet
Validated: 1
EndChar

StartChar: asciitilde
Encoding: 126 126 129
Width: 579
VWidth: 0
Flags: W
VStem: 440.13 102.87<497.451 540.91>
LayerCount: 2
Fore
SplineSet
138.870117188 396.73046875 m 1
 36 389.669921875 l 1
 46.0703125 599.379882812 261.889648438 642.469726562 337.889648438 506.669921875 c 0
 354.139648438 477.669921875 391.169921875 472.450195312 416.540039062 492.290039062 c 0
 431.459960938 503.959960938 439.629882812 522.200195312 440.129882812 540.91015625 c 1
 543 548 l 1
 543.66015625 355 337.379882812 302.26953125 241.110351562 431 c 0
 221.41015625 457.33984375 187.830078125 465.219726562 162.459960938 445.379882812 c 0
 147.5 433.690429688 139.370117188 415.440429688 138.870117188 396.73046875 c 1
EndSplineSet
Validated: 33
EndChar

